<svg xmlns="http://www.w3.org/2000/svg" xmlns:xlink="http://www.w3.org/1999/xlink" contentStyleType="text/css" data-diagram-type="SEQUENCE" height="394px" preserveAspectRatio="none" style="width:754px;height:394px;background:#FFFFFF;" version="1.1" viewBox="0 0 754 394" width="754px" zoomAndPan="magnify"><title>S&#233;quence - Dashboard</title><defs/><g><text fill="#000000" font-family="sans-serif" font-size="14" font-weight="bold" lengthAdjust="spacing" textLength="177.7617" x="290.0498" y="27.9951">S&#233;quence - Dashboard</text><g><title>Utilisateur</title><rect fill="#000000" fill-opacity="0.00000" height="194.7969" width="8" x="40.0049" y="118.5938"/><line style="stroke:#181818;stroke-width:0.5;stroke-dasharray:5,5;" x1="44" x2="44" y1="118.5938" y2="313.3906"/></g><g><title>UI Dashboard</title><rect fill="#000000" fill-opacity="0.00000" height="194.7969" width="8" x="179.3608" y="118.5938"/><line style="stroke:#181818;stroke-width:0.5;stroke-dasharray:5,5;" x1="182.8477" x2="182.8477" y1="118.5938" y2="313.3906"/></g><g><title>Contr.leur</title><rect fill="#000000" fill-opacity="0.00000" height="194.7969" width="8" x="394.7554" y="118.5938"/><line style="stroke:#181818;stroke-width:0.5;stroke-dasharray:5,5;" x1="398.6772" x2="398.6772" y1="118.5938" y2="313.3906"/></g><g><title>Base de donn.es</title><rect fill="#000000" fill-opacity="0.00000" height="194.7969" width="8" x="579.9478" y="118.5938"/><line style="stroke:#181818;stroke-width:0.5;stroke-dasharray:5,5;" x1="583.8428" x2="583.8428" y1="118.5938" y2="313.3906"/></g><g><title>Modules VHF</title><rect fill="#000000" fill-opacity="0.00000" height="194.7969" width="8" x="701.457" y="118.5938"/><line style="stroke:#181818;stroke-width:0.5;stroke-dasharray:5,5;" x1="705.0527" x2="705.0527" y1="118.5938" y2="313.3906"/></g><g class="participant participant-head" data-participant="User"><text fill="#000000" font-family="sans-serif" font-size="14" lengthAdjust="spacing" textLength="72.0098" x="5" y="115.292">Utilisateur</text><ellipse cx="44.0049" cy="50.7969" fill="#E2E2F0" rx="8" ry="8" style="stroke:#181818;stroke-width:0.5;"/><path d="M44.0049,58.7969 L44.0049,85.7969 M31.0049,66.7969 L57.0049,66.7969 M44.0049,85.7969 L31.0049,100.7969 M44.0049,85.7969 L57.0049,100.7969" fill="none" style="stroke:#181818;stroke-width:0.5;"/></g><g class="participant participant-tail" data-participant="User"><text fill="#000000" font-family="sans-serif" font-size="14" lengthAdjust="spacing" textLength="72.0098" x="5" y="325.3857">Utilisateur</text><ellipse cx="44.0049" cy="337.1875" fill="#E2E2F0" rx="8" ry="8" style="stroke:#181818;stroke-width:0.5;"/><path d="M44.0049,345.1875 L44.0049,372.1875 M31.0049,353.1875 L57.0049,353.1875 M44.0049,372.1875 L31.0049,387.1875 M44.0049,372.1875 L57.0049,387.1875" fill="none" style="stroke:#181818;stroke-width:0.5;"/></g><g class="participant participant-head" data-participant="UI"><text fill="#000000" font-family="sans-serif" font-size="14" lengthAdjust="spacing" textLength="95.0264" x="132.8477" y="115.292">UI Dashboard</text><path d="M162.8608,74.2969 L162.8608,98.2969 M162.8608,86.2969 L179.8608,86.2969" fill="none" style="stroke:#181818;stroke-width:0.5;"/><ellipse cx="191.8608" cy="86.2969" fill="#E2E2F0" rx="12" ry="12" style="stroke:#181818;stroke-width:0.5;"/></g><g class="participant participant-tail" data-participant="UI"><text fill="#000000" font-family="sans-serif" font-size="14" lengthAdjust="spacing" textLength="95.0264" x="132.8477" y="325.3857">UI Dashboard</text><path d="M162.8608,332.6875 L162.8608,356.6875 M162.8608,344.6875 L179.8608,344.6875" fill="none" style="stroke:#181818;stroke-width:0.5;"/><ellipse cx="191.8608" cy="344.6875" fill="#E2E2F0" rx="12" ry="12" style="stroke:#181818;stroke-width:0.5;"/></g><g class="participant participant-head" data-participant="Controller"><text fill="#000000" font-family="sans-serif" font-size="14" lengthAdjust="spacing" textLength="74.1563" x="358.6772" y="115.292">Contr&#244;leur</text><ellipse cx="398.7554" cy="86.2969" fill="#E2E2F0" rx="12" ry="12" style="stroke:#181818;stroke-width:0.5;"/><polygon fill="#181818" points="394.7554,74.2969,400.7554,69.2969,398.7554,74.2969,400.7554,79.2969,394.7554,74.2969" style="stroke:#181818;stroke-width:1;"/></g><g class="participant participant-tail" data-participant="Controller"><text fill="#000000" font-family="sans-serif" font-size="14" lengthAdjust="spacing" textLength="74.1563" x="358.6772" y="325.3857">Contr&#244;leur</text><ellipse cx="398.7554" cy="344.6875" fill="#E2E2F0" rx="12" ry="12" style="stroke:#181818;stroke-width:0.5;"/><polygon fill="#181818" points="394.7554,332.6875,400.7554,327.6875,398.7554,332.6875,400.7554,337.6875,394.7554,332.6875" style="stroke:#181818;stroke-width:1;"/></g><g class="participant participant-head" data-participant="DB"><text fill="#000000" font-family="sans-serif" font-size="14" lengthAdjust="spacing" textLength="120.21" x="520.8428" y="115.292">Base de donn&#233;es</text><ellipse cx="583.9478" cy="86.2969" fill="#E2E2F0" rx="12" ry="12" style="stroke:#181818;stroke-width:0.5;"/><line style="stroke:#181818;stroke-width:0.5;" x1="571.9478" x2="595.9478" y1="100.2969" y2="100.2969"/></g><g class="participant participant-tail" data-participant="DB"><text fill="#000000" font-family="sans-serif" font-size="14" lengthAdjust="spacing" textLength="120.21" x="520.8428" y="325.3857">Base de donn&#233;es</text><ellipse cx="583.9478" cy="344.6875" fill="#E2E2F0" rx="12" ry="12" style="stroke:#181818;stroke-width:0.5;"/><line style="stroke:#181818;stroke-width:0.5;" x1="571.9478" x2="595.9478" y1="358.6875" y2="358.6875"/></g><g class="participant participant-head" data-participant="Modules"><text fill="#000000" font-family="sans-serif" font-size="14" lengthAdjust="spacing" textLength="90.8086" x="657.0527" y="115.292">Modules VHF</text><ellipse cx="705.457" cy="86.2969" fill="#E2E2F0" rx="12" ry="12" style="stroke:#181818;stroke-width:0.5;"/><line style="stroke:#181818;stroke-width:0.5;" x1="693.457" x2="717.457" y1="100.2969" y2="100.2969"/></g><g class="participant participant-tail" data-participant="Modules"><text fill="#000000" font-family="sans-serif" font-size="14" lengthAdjust="spacing" textLength="90.8086" x="657.0527" y="325.3857">Modules VHF</text><ellipse cx="705.457" cy="344.6875" fill="#E2E2F0" rx="12" ry="12" style="stroke:#181818;stroke-width:0.5;"/><line style="stroke:#181818;stroke-width:0.5;" x1="693.457" x2="717.457" y1="358.6875" y2="358.6875"/></g><g class="message" data-participant-1="User" data-participant-2="UI"><polygon fill="#181818" points="171.3608,145.7266,181.3608,149.7266,171.3608,153.7266,175.3608,149.7266" style="stroke:#181818;stroke-width:1;"/><line style="stroke:#181818;stroke-width:1;" x1="44.0049" x2="177.3608" y1="149.7266" y2="149.7266"/><text fill="#000000" font-family="sans-serif" font-size="13" lengthAdjust="spacing" textLength="115.356" x="51.0049" y="144.6606">Ouvrir Dashboard</text></g><g class="message" data-participant-1="UI" data-participant-2="Controller"><polygon fill="#181818" points="386.7554,174.8594,396.7554,178.8594,386.7554,182.8594,390.7554,178.8594" style="stroke:#181818;stroke-width:1;"/><line style="stroke:#181818;stroke-width:1;" x1="183.3608" x2="392.7554" y1="178.8594" y2="178.8594"/><text fill="#000000" font-family="sans-serif" font-size="13" lengthAdjust="spacing" textLength="144.8853" x="190.3608" y="173.7935">Demander indicateurs</text></g><g class="message" data-participant-1="Controller" data-participant-2="DB"><polygon fill="#181818" points="571.9478,203.9922,581.9478,207.9922,571.9478,211.9922,575.9478,207.9922" style="stroke:#181818;stroke-width:1;"/><line style="stroke:#181818;stroke-width:1;" x1="398.7554" x2="577.9478" y1="207.9922" y2="207.9922"/><text fill="#000000" font-family="sans-serif" font-size="13" lengthAdjust="spacing" textLength="161.1924" x="405.7554" y="202.9263">R&#233;cup&#233;rer infos globales</text></g><g class="message" data-participant-1="Controller" data-participant-2="Modules"><polygon fill="#181818" points="693.457,233.125,703.457,237.125,693.457,241.125,697.457,237.125" style="stroke:#181818;stroke-width:1;"/><line style="stroke:#181818;stroke-width:1;" x1="398.7554" x2="699.457" y1="237.125" y2="237.125"/><text fill="#000000" font-family="sans-serif" font-size="13" lengthAdjust="spacing" textLength="175.0938" x="405.7554" y="232.0591">Obtenir &#233;tats &#233;quipements</text></g><g class="message" data-participant-1="Modules" data-participant-2="Controller"><polygon fill="#181818" points="409.7554,262.2578,399.7554,266.2578,409.7554,270.2578,405.7554,266.2578" style="stroke:#181818;stroke-width:1;"/><line style="stroke:#181818;stroke-width:1;stroke-dasharray:2,2;" x1="403.7554" x2="704.457" y1="266.2578" y2="266.2578"/><text fill="#000000" font-family="sans-serif" font-size="13" lengthAdjust="spacing" textLength="131.2124" x="415.7554" y="261.1919">Donn&#233;es temps r&#233;el</text></g><g class="message" data-participant-1="Controller" data-participant-2="UI"><polygon fill="#181818" points="194.3608,291.3906,184.3608,295.3906,194.3608,299.3906,190.3608,295.3906" style="stroke:#181818;stroke-width:1;"/><line style="stroke:#181818;stroke-width:1;" x1="188.3608" x2="397.7554" y1="295.3906" y2="295.3906"/><text fill="#000000" font-family="sans-serif" font-size="13" lengthAdjust="spacing" textLength="191.3945" x="200.3608" y="290.3247">Afficher graphiques + alertes</text></g><!--SRC=[PP51JiGm34NtEONLBUe5M23HgH2pG2E1oZvjt6caD2cnWyIHkkS6kHXkc646aB9myf_plnEsx11UylgMq0y8DRIQfZxeQ9JI0uS87LjdIJEc29gW8uog3yaR7J-WwlQNZgheUpK4pp4ug7PRaJ-Tj1PjzoqukG4zMvR-HXE2aHMypojIuThcHtyA9ZaaU7ryAD9fhzIM0-exyODREAJtQEDLTZaLxU8dJ8kpzaPAwuqToZoahWZXsqQuvxmEQSbhBEWO28ukz7ep_KsVeubzp-Z5Fw-icM1xJRlWB3EGEbFrlpodYO5nNWYYrEwFGvdjVXpjCCd1CUfbil9H13SWUI8ZVG40]--></g></svg>