<svg xmlns="http://www.w3.org/2000/svg" xmlns:xlink="http://www.w3.org/1999/xlink" contentStyleType="text/css" data-diagram-type="SEQUENCE" height="365px" preserveAspectRatio="none" style="width:752px;height:365px;background:#FFFFFF;" version="1.1" viewBox="0 0 752 365" width="752px" zoomAndPan="magnify"><title>S&#233;quence - Module Basculeur</title><defs/><g><text fill="#000000" font-family="sans-serif" font-size="14" font-weight="bold" lengthAdjust="spacing" textLength="232.9688" x="261.4907" y="27.9951">S&#233;quence - Module Basculeur</text><g><title>Utilisateur</title><rect fill="#000000" fill-opacity="0.00000" height="165.6641" width="8" x="40.0049" y="118.5938"/><line style="stroke:#181818;stroke-width:0.5;stroke-dasharray:5,5;" x1="44" x2="44" y1="118.5938" y2="284.2578"/></g><g><title>UI Basculeur</title><rect fill="#000000" fill-opacity="0.00000" height="165.6641" width="8" x="258.3447" y="118.5938"/><line style="stroke:#181818;stroke-width:0.5;stroke-dasharray:5,5;" x1="262.3418" x2="262.3418" y1="118.5938" y2="284.2578"/></g><g><title>Contr.leur</title><rect fill="#000000" fill-opacity="0.00000" height="165.6641" width="8" x="452.7031" y="118.5938"/><line style="stroke:#181818;stroke-width:0.5;stroke-dasharray:5,5;" x1="456.625" x2="456.625" y1="118.5938" y2="284.2578"/></g><g><title>Basculeur</title><rect fill="#000000" fill-opacity="0.00000" height="165.6641" width="8" x="710.3604" y="118.5938"/><line style="stroke:#181818;stroke-width:0.5;stroke-dasharray:5,5;" x1="713.7705" x2="713.7705" y1="118.5938" y2="284.2578"/></g><g class="participant participant-head" data-participant="User"><text fill="#000000" font-family="sans-serif" font-size="14" lengthAdjust="spacing" textLength="72.0098" x="5" y="115.292">Utilisateur</text><ellipse cx="44.0049" cy="50.7969" fill="#E2E2F0" rx="8" ry="8" style="stroke:#181818;stroke-width:0.5;"/><path d="M44.0049,58.7969 L44.0049,85.7969 M31.0049,66.7969 L57.0049,66.7969 M44.0049,85.7969 L31.0049,100.7969 M44.0049,85.7969 L57.0049,100.7969" fill="none" style="stroke:#181818;stroke-width:0.5;"/></g><g class="participant participant-tail" data-participant="User"><text fill="#000000" font-family="sans-serif" font-size="14" lengthAdjust="spacing" textLength="72.0098" x="5" y="296.2529">Utilisateur</text><ellipse cx="44.0049" cy="308.0547" fill="#E2E2F0" rx="8" ry="8" style="stroke:#181818;stroke-width:0.5;"/><path d="M44.0049,316.0547 L44.0049,343.0547 M31.0049,324.0547 L57.0049,324.0547 M44.0049,343.0547 L31.0049,358.0547 M44.0049,343.0547 L57.0049,358.0547" fill="none" style="stroke:#181818;stroke-width:0.5;"/></g><g class="participant participant-head" data-participant="UI"><text fill="#000000" font-family="sans-serif" font-size="14" lengthAdjust="spacing" textLength="88.0059" x="215.3418" y="115.292">UI Basculeur</text><path d="M241.8447,74.2969 L241.8447,98.2969 M241.8447,86.2969 L258.8447,86.2969" fill="none" style="stroke:#181818;stroke-width:0.5;"/><ellipse cx="270.8447" cy="86.2969" fill="#E2E2F0" rx="12" ry="12" style="stroke:#181818;stroke-width:0.5;"/></g><g class="participant participant-tail" data-participant="UI"><text fill="#000000" font-family="sans-serif" font-size="14" lengthAdjust="spacing" textLength="88.0059" x="215.3418" y="296.2529">UI Basculeur</text><path d="M241.8447,303.5547 L241.8447,327.5547 M241.8447,315.5547 L258.8447,315.5547" fill="none" style="stroke:#181818;stroke-width:0.5;"/><ellipse cx="270.8447" cy="315.5547" fill="#E2E2F0" rx="12" ry="12" style="stroke:#181818;stroke-width:0.5;"/></g><g class="participant participant-head" data-participant="Controller"><text fill="#000000" font-family="sans-serif" font-size="14" lengthAdjust="spacing" textLength="74.1563" x="416.625" y="115.292">Contr&#244;leur</text><ellipse cx="456.7031" cy="86.2969" fill="#E2E2F0" rx="12" ry="12" style="stroke:#181818;stroke-width:0.5;"/><polygon fill="#181818" points="452.7031,74.2969,458.7031,69.2969,456.7031,74.2969,458.7031,79.2969,452.7031,74.2969" style="stroke:#181818;stroke-width:1;"/></g><g class="participant participant-tail" data-participant="Controller"><text fill="#000000" font-family="sans-serif" font-size="14" lengthAdjust="spacing" textLength="74.1563" x="416.625" y="296.2529">Contr&#244;leur</text><ellipse cx="456.7031" cy="315.5547" fill="#E2E2F0" rx="12" ry="12" style="stroke:#181818;stroke-width:0.5;"/><polygon fill="#181818" points="452.7031,303.5547,458.7031,298.5547,456.7031,303.5547,458.7031,308.5547,452.7031,303.5547" style="stroke:#181818;stroke-width:1;"/></g><g class="participant participant-head" data-participant="SW"><text fill="#000000" font-family="sans-serif" font-size="14" lengthAdjust="spacing" textLength="69.1797" x="676.7705" y="115.292">Basculeur</text><ellipse cx="714.3604" cy="86.2969" fill="#E2E2F0" rx="12" ry="12" style="stroke:#181818;stroke-width:0.5;"/><line style="stroke:#181818;stroke-width:0.5;" x1="702.3604" x2="726.3604" y1="100.2969" y2="100.2969"/></g><g class="participant participant-tail" data-participant="SW"><text fill="#000000" font-family="sans-serif" font-size="14" lengthAdjust="spacing" textLength="69.1797" x="676.7705" y="296.2529">Basculeur</text><ellipse cx="714.3604" cy="315.5547" fill="#E2E2F0" rx="12" ry="12" style="stroke:#181818;stroke-width:0.5;"/><line style="stroke:#181818;stroke-width:0.5;" x1="702.3604" x2="726.3604" y1="329.5547" y2="329.5547"/></g><g class="message" data-participant-1="User" data-participant-2="UI"><polygon fill="#181818" points="250.3447,145.7266,260.3447,149.7266,250.3447,153.7266,254.3447,149.7266" style="stroke:#181818;stroke-width:1;"/><line style="stroke:#181818;stroke-width:1;" x1="44.0049" x2="256.3447" y1="149.7266" y2="149.7266"/><text fill="#000000" font-family="sans-serif" font-size="13" lengthAdjust="spacing" textLength="194.3398" x="51.0049" y="144.6606">Acc&#233;der au module Basculeur</text></g><g class="message" data-participant-1="UI" data-participant-2="Controller"><polygon fill="#181818" points="444.7031,174.8594,454.7031,178.8594,444.7031,182.8594,448.7031,178.8594" style="stroke:#181818;stroke-width:1;"/><line style="stroke:#181818;stroke-width:1;" x1="262.3447" x2="450.7031" y1="178.8594" y2="178.8594"/><text fill="#000000" font-family="sans-serif" font-size="13" lengthAdjust="spacing" textLength="170.3584" x="269.3447" y="173.7935">Demander &#233;tat canal actif</text></g><g class="message" data-participant-1="Controller" data-participant-2="SW"><polygon fill="#181818" points="702.3604,203.9922,712.3604,207.9922,702.3604,211.9922,706.3604,207.9922" style="stroke:#181818;stroke-width:1;"/><line style="stroke:#181818;stroke-width:1;" x1="456.7031" x2="708.3604" y1="207.9922" y2="207.9922"/><text fill="#000000" font-family="sans-serif" font-size="13" lengthAdjust="spacing" textLength="233.6572" x="463.7031" y="202.9263">Lire &#233;tat + historique basculements</text></g><g class="message" data-participant-1="SW" data-participant-2="Controller"><polygon fill="#181818" points="467.7031,233.125,457.7031,237.125,467.7031,241.125,463.7031,237.125" style="stroke:#181818;stroke-width:1;"/><line style="stroke:#181818;stroke-width:1;stroke-dasharray:2,2;" x1="461.7031" x2="713.3604" y1="237.125" y2="237.125"/><text fill="#000000" font-family="sans-serif" font-size="13" lengthAdjust="spacing" textLength="132.939" x="473.7031" y="232.0591">Donn&#233;es techniques</text></g><g class="message" data-participant-1="Controller" data-participant-2="UI"><polygon fill="#181818" points="273.3447,262.2578,263.3447,266.2578,273.3447,270.2578,269.3447,266.2578" style="stroke:#181818;stroke-width:1;"/><line style="stroke:#181818;stroke-width:1;" x1="267.3447" x2="455.7031" y1="266.2578" y2="266.2578"/><text fill="#000000" font-family="sans-serif" font-size="13" lengthAdjust="spacing" textLength="136.5508" x="279.3447" y="261.1919">Afficher informations</text></g><!--SRC=[PP0zRiCm38LtdOBm6lW27GeqoHAWdGmZCoFBC06PGaLgw96yzmQwMEcwo5yd2O_VU_nHqXYWgyjd2Um3jF2HXcBI7iNRMx9pw3Lbw9KY2Qf9W0AzXEmkgV20-GkQ_dHpDB_ra_E9DQS8pM7zrEzhxR0LeYK4LbBpFvgxitDh0sXVBGXUuCtxkWmcO87vUK0ZZBk56dyCC_BArqLHmIDZ1Dk3HdV7cQix6_rEEVoHEvX8R5soUy1bQp7RaEACRF-rISnr2G8Q_CIhHvxoj-d7aVna0l6OyenAYUK7]--></g></svg>