<svg xmlns="http://www.w3.org/2000/svg" xmlns:xlink="http://www.w3.org/1999/xlink" contentStyleType="text/css" data-diagram-type="SEQUENCE" height="365px" preserveAspectRatio="none" style="width:964px;height:365px;background:#FFFFFF;" version="1.1" viewBox="0 0 964 365" width="964px" zoomAndPan="magnify"><title>S&#233;quence - Module R&#233;cepteur VHF</title><defs/><g><text fill="#000000" font-family="sans-serif" font-size="14" font-weight="bold" lengthAdjust="spacing" textLength="273.2256" x="347.0439" y="27.9951">S&#233;quence - Module R&#233;cepteur VHF</text><g><title>Utilisateur</title><rect fill="#000000" fill-opacity="0.00000" height="165.6641" width="8" x="40.0049" y="118.5938"/><line style="stroke:#181818;stroke-width:0.5;stroke-dasharray:5,5;" x1="44" x2="44" y1="118.5938" y2="284.2578"/></g><g><title>UI R.cepteur</title><rect fill="#000000" fill-opacity="0.00000" height="165.6641" width="8" x="261.2139" y="118.5938"/><line style="stroke:#181818;stroke-width:0.5;stroke-dasharray:5,5;" x1="264.666" x2="264.666" y1="118.5938" y2="284.2578"/></g><g><title>Contr.leur</title><rect fill="#000000" fill-opacity="0.00000" height="165.6641" width="8" x="480.8232" y="118.5938"/><line style="stroke:#181818;stroke-width:0.5;stroke-dasharray:5,5;" x1="484.7451" x2="484.7451" y1="118.5938" y2="284.2578"/></g><g><title>R.cepteur VHF</title><rect fill="#000000" fill-opacity="0.00000" height="165.6641" width="8" x="903.875" y="118.5938"/><line style="stroke:#181818;stroke-width:0.5;stroke-dasharray:5,5;" x1="907.4365" x2="907.4365" y1="118.5938" y2="284.2578"/></g><g class="participant participant-head" data-participant="User"><text fill="#000000" font-family="sans-serif" font-size="14" lengthAdjust="spacing" textLength="72.0098" x="5" y="115.292">Utilisateur</text><ellipse cx="44.0049" cy="50.7969" fill="#E2E2F0" rx="8" ry="8" style="stroke:#181818;stroke-width:0.5;"/><path d="M44.0049,58.7969 L44.0049,85.7969 M31.0049,66.7969 L57.0049,66.7969 M44.0049,85.7969 L31.0049,100.7969 M44.0049,85.7969 L57.0049,100.7969" fill="none" style="stroke:#181818;stroke-width:0.5;"/></g><g class="participant participant-tail" data-participant="User"><text fill="#000000" font-family="sans-serif" font-size="14" lengthAdjust="spacing" textLength="72.0098" x="5" y="296.2529">Utilisateur</text><ellipse cx="44.0049" cy="308.0547" fill="#E2E2F0" rx="8" ry="8" style="stroke:#181818;stroke-width:0.5;"/><path d="M44.0049,316.0547 L44.0049,343.0547 M31.0049,324.0547 L57.0049,324.0547 M44.0049,343.0547 L31.0049,358.0547 M44.0049,343.0547 L57.0049,358.0547" fill="none" style="stroke:#181818;stroke-width:0.5;"/></g><g class="participant participant-head" data-participant="UI"><text fill="#000000" font-family="sans-serif" font-size="14" lengthAdjust="spacing" textLength="91.0957" x="216.666" y="115.292">UI R&#233;cepteur</text><path d="M244.7139,74.2969 L244.7139,98.2969 M244.7139,86.2969 L261.7139,86.2969" fill="none" style="stroke:#181818;stroke-width:0.5;"/><ellipse cx="273.7139" cy="86.2969" fill="#E2E2F0" rx="12" ry="12" style="stroke:#181818;stroke-width:0.5;"/></g><g class="participant participant-tail" data-participant="UI"><text fill="#000000" font-family="sans-serif" font-size="14" lengthAdjust="spacing" textLength="91.0957" x="216.666" y="296.2529">UI R&#233;cepteur</text><path d="M244.7139,303.5547 L244.7139,327.5547 M244.7139,315.5547 L261.7139,315.5547" fill="none" style="stroke:#181818;stroke-width:0.5;"/><ellipse cx="273.7139" cy="315.5547" fill="#E2E2F0" rx="12" ry="12" style="stroke:#181818;stroke-width:0.5;"/></g><g class="participant participant-head" data-participant="Controller"><text fill="#000000" font-family="sans-serif" font-size="14" lengthAdjust="spacing" textLength="74.1563" x="444.7451" y="115.292">Contr&#244;leur</text><ellipse cx="484.8232" cy="86.2969" fill="#E2E2F0" rx="12" ry="12" style="stroke:#181818;stroke-width:0.5;"/><polygon fill="#181818" points="480.8232,74.2969,486.8232,69.2969,484.8232,74.2969,486.8232,79.2969,480.8232,74.2969" style="stroke:#181818;stroke-width:1;"/></g><g class="participant participant-tail" data-participant="Controller"><text fill="#000000" font-family="sans-serif" font-size="14" lengthAdjust="spacing" textLength="74.1563" x="444.7451" y="296.2529">Contr&#244;leur</text><ellipse cx="484.8232" cy="315.5547" fill="#E2E2F0" rx="12" ry="12" style="stroke:#181818;stroke-width:0.5;"/><polygon fill="#181818" points="480.8232,303.5547,486.8232,298.5547,484.8232,303.5547,486.8232,308.5547,480.8232,303.5547" style="stroke:#181818;stroke-width:1;"/></g><g class="participant participant-head" data-participant="RX"><text fill="#000000" font-family="sans-serif" font-size="14" lengthAdjust="spacing" textLength="104.877" x="852.4365" y="115.292">R&#233;cepteur VHF</text><ellipse cx="907.875" cy="86.2969" fill="#E2E2F0" rx="12" ry="12" style="stroke:#181818;stroke-width:0.5;"/><line style="stroke:#181818;stroke-width:0.5;" x1="895.875" x2="919.875" y1="100.2969" y2="100.2969"/></g><g class="participant participant-tail" data-participant="RX"><text fill="#000000" font-family="sans-serif" font-size="14" lengthAdjust="spacing" textLength="104.877" x="852.4365" y="296.2529">R&#233;cepteur VHF</text><ellipse cx="907.875" cy="315.5547" fill="#E2E2F0" rx="12" ry="12" style="stroke:#181818;stroke-width:0.5;"/><line style="stroke:#181818;stroke-width:0.5;" x1="895.875" x2="919.875" y1="329.5547" y2="329.5547"/></g><g class="message" data-participant-1="User" data-participant-2="UI"><polygon fill="#181818" points="253.2139,145.7266,263.2139,149.7266,253.2139,153.7266,257.2139,149.7266" style="stroke:#181818;stroke-width:1;"/><line style="stroke:#181818;stroke-width:1;" x1="44.0049" x2="259.2139" y1="149.7266" y2="149.7266"/><text fill="#000000" font-family="sans-serif" font-size="13" lengthAdjust="spacing" textLength="197.209" x="51.0049" y="144.6606">Acc&#233;der au module R&#233;cepteur</text></g><g class="message" data-participant-1="UI" data-participant-2="Controller"><polygon fill="#181818" points="472.8232,174.8594,482.8232,178.8594,472.8232,182.8594,476.8232,178.8594" style="stroke:#181818;stroke-width:1;"/><line style="stroke:#181818;stroke-width:1;" x1="265.2139" x2="478.8232" y1="178.8594" y2="178.8594"/><text fill="#000000" font-family="sans-serif" font-size="13" lengthAdjust="spacing" textLength="195.6094" x="272.2139" y="173.7935">Demander donn&#233;es r&#233;cepteur</text></g><g class="message" data-participant-1="Controller" data-participant-2="RX"><polygon fill="#181818" points="895.875,203.9922,905.875,207.9922,895.875,211.9922,899.875,207.9922" style="stroke:#181818;stroke-width:1;"/><line style="stroke:#181818;stroke-width:1;" x1="484.8232" x2="901.875" y1="207.9922" y2="207.9922"/><text fill="#000000" font-family="sans-serif" font-size="13" lengthAdjust="spacing" textLength="399.0518" x="491.8232" y="202.9263">Lire fr&#233;quence, puissance signal, bruit, Squelch, temp&#233;rature</text></g><g class="message" data-participant-1="RX" data-participant-2="Controller"><polygon fill="#181818" points="495.8232,233.125,485.8232,237.125,495.8232,241.125,491.8232,237.125" style="stroke:#181818;stroke-width:1;"/><line style="stroke:#181818;stroke-width:1;stroke-dasharray:2,2;" x1="489.8232" x2="906.875" y1="237.125" y2="237.125"/><text fill="#000000" font-family="sans-serif" font-size="13" lengthAdjust="spacing" textLength="132.939" x="501.8232" y="232.0591">Donn&#233;es techniques</text></g><g class="message" data-participant-1="Controller" data-participant-2="UI"><polygon fill="#181818" points="276.2139,262.2578,266.2139,266.2578,276.2139,270.2578,272.2139,266.2578" style="stroke:#181818;stroke-width:1;"/><line style="stroke:#181818;stroke-width:1;" x1="270.2139" x2="483.8232" y1="266.2578" y2="266.2578"/><text fill="#000000" font-family="sans-serif" font-size="13" lengthAdjust="spacing" textLength="129.9238" x="282.2139" y="261.1919">Afficher param&#232;tres</text></g><!--SRC=[PP0nRiCm34LtdOBmR5-WGu4YHT40xUB0HLP5fci1ikHGrD0RLNjle8kLTc0aJJVXy_t_AR9bXt0e-PpG6uG6taEVH6fBDZWp9eAFrnUbjE50qB5rDkfLrX6wYAHE8VbUqnTKtVx6Lgt0NfdWcOA3QhSyoe_RPhlBm4a4UhOi0NzBLwezAhNKGFCeQV00JyQKt8kW4qptkof11Bn6Y-4P9-qNGn-yBnaZq9M_8SNN7eL_iuGmq7QI6kPaOzJBTQBzzDhLSA9akOQ34CwCDJ1ESycaEH4g2Md-xR1LCvhHM_75k-hBtuR1cb64MPEUoZSJnby0]--></g></svg>