<svg xmlns="http://www.w3.org/2000/svg" xmlns:xlink="http://www.w3.org/1999/xlink" contentStyleType="text/css" data-diagram-type="SEQUENCE" height="365px" preserveAspectRatio="none" style="width:617px;height:365px;background:#FFFFFF;" version="1.1" viewBox="0 0 617 365" width="617px" zoomAndPan="magnify"><title>S&#233;quence - Historique et Rapports</title><defs/><g><text fill="#000000" font-family="sans-serif" font-size="14" font-weight="bold" lengthAdjust="spacing" textLength="272.4805" x="174.1597" y="27.9951">S&#233;quence - Historique et Rapports</text><g><title>Utilisateur</title><rect fill="#000000" fill-opacity="0.00000" height="165.6641" width="8" x="40.0049" y="118.5938"/><line style="stroke:#181818;stroke-width:0.5;stroke-dasharray:5,5;" x1="44" x2="44" y1="118.5938" y2="284.2578"/></g><g><title>UI Historique</title><rect fill="#000000" fill-opacity="0.00000" height="165.6641" width="8" x="175.2603" y="118.5938"/><line style="stroke:#181818;stroke-width:0.5;stroke-dasharray:5,5;" x1="178.9551" x2="178.9551" y1="118.5938" y2="284.2578"/></g><g><title>Contr.leur</title><rect fill="#000000" fill-opacity="0.00000" height="165.6641" width="8" x="394.9966" y="118.5938"/><line style="stroke:#181818;stroke-width:0.5;stroke-dasharray:5,5;" x1="398.9185" x2="398.9185" y1="118.5938" y2="284.2578"/></g><g><title>Base de donn.es</title><rect fill="#000000" fill-opacity="0.00000" height="165.6641" width="8" x="549.6948" y="118.5938"/><line style="stroke:#181818;stroke-width:0.5;stroke-dasharray:5,5;" x1="553.5898" x2="553.5898" y1="118.5938" y2="284.2578"/></g><g class="participant participant-head" data-participant="User"><text fill="#000000" font-family="sans-serif" font-size="14" lengthAdjust="spacing" textLength="72.0098" x="5" y="115.292">Utilisateur</text><ellipse cx="44.0049" cy="50.7969" fill="#E2E2F0" rx="8" ry="8" style="stroke:#181818;stroke-width:0.5;"/><path d="M44.0049,58.7969 L44.0049,85.7969 M31.0049,66.7969 L57.0049,66.7969 M44.0049,85.7969 L31.0049,100.7969 M44.0049,85.7969 L57.0049,100.7969" fill="none" style="stroke:#181818;stroke-width:0.5;"/></g><g class="participant participant-tail" data-participant="User"><text fill="#000000" font-family="sans-serif" font-size="14" lengthAdjust="spacing" textLength="72.0098" x="5" y="296.2529">Utilisateur</text><ellipse cx="44.0049" cy="308.0547" fill="#E2E2F0" rx="8" ry="8" style="stroke:#181818;stroke-width:0.5;"/><path d="M44.0049,316.0547 L44.0049,343.0547 M31.0049,324.0547 L57.0049,324.0547 M44.0049,343.0547 L31.0049,358.0547 M44.0049,343.0547 L57.0049,358.0547" fill="none" style="stroke:#181818;stroke-width:0.5;"/></g><g class="participant participant-head" data-participant="UIHist"><text fill="#000000" font-family="sans-serif" font-size="14" lengthAdjust="spacing" textLength="90.6104" x="130.9551" y="115.292">UI Historique</text><path d="M158.7603,74.2969 L158.7603,98.2969 M158.7603,86.2969 L175.7603,86.2969" fill="none" style="stroke:#181818;stroke-width:0.5;"/><ellipse cx="187.7603" cy="86.2969" fill="#E2E2F0" rx="12" ry="12" style="stroke:#181818;stroke-width:0.5;"/></g><g class="participant participant-tail" data-participant="UIHist"><text fill="#000000" font-family="sans-serif" font-size="14" lengthAdjust="spacing" textLength="90.6104" x="130.9551" y="296.2529">UI Historique</text><path d="M158.7603,303.5547 L158.7603,327.5547 M158.7603,315.5547 L175.7603,315.5547" fill="none" style="stroke:#181818;stroke-width:0.5;"/><ellipse cx="187.7603" cy="315.5547" fill="#E2E2F0" rx="12" ry="12" style="stroke:#181818;stroke-width:0.5;"/></g><g class="participant participant-head" data-participant="CtrlHist"><text fill="#000000" font-family="sans-serif" font-size="14" lengthAdjust="spacing" textLength="74.1563" x="358.9185" y="115.292">Contr&#244;leur</text><ellipse cx="398.9966" cy="86.2969" fill="#E2E2F0" rx="12" ry="12" style="stroke:#181818;stroke-width:0.5;"/><polygon fill="#181818" points="394.9966,74.2969,400.9966,69.2969,398.9966,74.2969,400.9966,79.2969,394.9966,74.2969" style="stroke:#181818;stroke-width:1;"/></g><g class="participant participant-tail" data-participant="CtrlHist"><text fill="#000000" font-family="sans-serif" font-size="14" lengthAdjust="spacing" textLength="74.1563" x="358.9185" y="296.2529">Contr&#244;leur</text><ellipse cx="398.9966" cy="315.5547" fill="#E2E2F0" rx="12" ry="12" style="stroke:#181818;stroke-width:0.5;"/><polygon fill="#181818" points="394.9966,303.5547,400.9966,298.5547,398.9966,303.5547,400.9966,308.5547,394.9966,303.5547" style="stroke:#181818;stroke-width:1;"/></g><g class="participant participant-head" data-participant="DBHist"><text fill="#000000" font-family="sans-serif" font-size="14" lengthAdjust="spacing" textLength="120.21" x="490.5898" y="115.292">Base de donn&#233;es</text><ellipse cx="553.6948" cy="86.2969" fill="#E2E2F0" rx="12" ry="12" style="stroke:#181818;stroke-width:0.5;"/><line style="stroke:#181818;stroke-width:0.5;" x1="541.6948" x2="565.6948" y1="100.2969" y2="100.2969"/></g><g class="participant participant-tail" data-participant="DBHist"><text fill="#000000" font-family="sans-serif" font-size="14" lengthAdjust="spacing" textLength="120.21" x="490.5898" y="296.2529">Base de donn&#233;es</text><ellipse cx="553.6948" cy="315.5547" fill="#E2E2F0" rx="12" ry="12" style="stroke:#181818;stroke-width:0.5;"/><line style="stroke:#181818;stroke-width:0.5;" x1="541.6948" x2="565.6948" y1="329.5547" y2="329.5547"/></g><g class="message" data-participant-1="User" data-participant-2="UIHist"><polygon fill="#181818" points="167.2603,145.7266,177.2603,149.7266,167.2603,153.7266,171.2603,149.7266" style="stroke:#181818;stroke-width:1;"/><line style="stroke:#181818;stroke-width:1;" x1="44.0049" x2="173.2603" y1="149.7266" y2="149.7266"/><text fill="#000000" font-family="sans-serif" font-size="13" lengthAdjust="spacing" textLength="111.2554" x="51.0049" y="144.6606">Ouvrir Historique</text></g><g class="message" data-participant-1="UIHist" data-participant-2="CtrlHist"><polygon fill="#181818" points="386.9966,174.8594,396.9966,178.8594,386.9966,182.8594,390.9966,178.8594" style="stroke:#181818;stroke-width:1;"/><line style="stroke:#181818;stroke-width:1;" x1="179.2603" x2="392.9966" y1="178.8594" y2="178.8594"/><text fill="#000000" font-family="sans-serif" font-size="13" lengthAdjust="spacing" textLength="194.4478" x="186.2603" y="173.7935">Demander &#233;v&#233;nements filtr&#233;s</text></g><g class="message" data-participant-1="CtrlHist" data-participant-2="DBHist"><polygon fill="#181818" points="541.6948,203.9922,551.6948,207.9922,541.6948,211.9922,545.6948,207.9922" style="stroke:#181818;stroke-width:1;"/><line style="stroke:#181818;stroke-width:1;" x1="398.9966" x2="547.6948" y1="207.9922" y2="207.9922"/><text fill="#000000" font-family="sans-serif" font-size="13" lengthAdjust="spacing" textLength="130.6982" x="405.9966" y="202.9263">Requ&#234;te avec filtres</text></g><g class="message" data-participant-1="DBHist" data-participant-2="CtrlHist"><polygon fill="#181818" points="409.9966,233.125,399.9966,237.125,409.9966,241.125,405.9966,237.125" style="stroke:#181818;stroke-width:1;"/><line style="stroke:#181818;stroke-width:1;stroke-dasharray:2,2;" x1="403.9966" x2="552.6948" y1="237.125" y2="237.125"/><text fill="#000000" font-family="sans-serif" font-size="13" lengthAdjust="spacing" textLength="60.5884" x="415.9966" y="232.0591">R&#233;sultats</text></g><g class="message" data-participant-1="CtrlHist" data-participant-2="UIHist"><polygon fill="#181818" points="190.2603,262.2578,180.2603,266.2578,190.2603,270.2578,186.2603,266.2578" style="stroke:#181818;stroke-width:1;"/><line style="stroke:#181818;stroke-width:1;" x1="184.2603" x2="397.9966" y1="266.2578" y2="266.2578"/><text fill="#000000" font-family="sans-serif" font-size="13" lengthAdjust="spacing" textLength="195.7363" x="196.2603" y="261.1919">Afficher tableau + graphiques</text></g><!--SRC=[LOunRiCm34LtdOBm6lW27GeqoT1C1Hpu08nCDm8KoH4f0psIC_S6kbXfnmqIG0F5__x_52UUu5YcQwPW2MhuT2mnEVq32JGu33496uDMrz2AyuvHA2T0XfOfcLFCeSFq0rLxUB9N2t2O5yR682bwg7RpK7wz-XTz9yal10LneX5RP89ENmoXJCGBjTykZ9dhe7vVK-4DllAON7egDQkaq7-qOdkwOEZKMwQnJ84ksiRGEw-tJ6mUfBhkLUffw9hBJGXm97jdYSqgrw_vZQPaBoYlMOypF_hUsRFs2vuyOOODV2SSplF5_0S0]--></g></svg>