<svg xmlns="http://www.w3.org/2000/svg" xmlns:xlink="http://www.w3.org/1999/xlink" contentStyleType="text/css" data-diagram-type="SEQUENCE" height="440px" preserveAspectRatio="none" style="width:595px;height:440px;background:#FFFFFF;" version="1.1" viewBox="0 0 595 440" width="595px" zoomAndPan="magnify"><title>S&#233;quence - Authentification</title><defs/><g><text fill="#000000" font-family="sans-serif" font-size="14" font-weight="bold" lengthAdjust="spacing" textLength="220.5068" x="189.0571" y="27.9951">S&#233;quence - Authentification</text><rect fill="none" height="90.2031" style="stroke:#000000;stroke-width:1.5;" width="321.4575" x="102.563" y="252.125"/><g><title>Utilisateur</title><rect fill="#000000" fill-opacity="0.00000" height="240.7344" width="8" x="40.0049" y="118.5938"/><line style="stroke:#181818;stroke-width:0.5;stroke-dasharray:5,5;" x1="44" x2="44" y1="118.5938" y2="359.3281"/></g><g><title>UI Authentification</title><rect fill="#000000" fill-opacity="0.00000" height="240.7344" width="8" x="176.771" y="118.5938"/><line style="stroke:#181818;stroke-width:0.5;stroke-dasharray:5,5;" x1="180.563" x2="180.563" y1="118.5938" y2="359.3281"/></g><g><title>Contr.leur</title><rect fill="#000000" fill-opacity="0.00000" height="240.7344" width="8" x="369.9424" y="118.5938"/><line style="stroke:#181818;stroke-width:0.5;stroke-dasharray:5,5;" x1="373.8643" x2="373.8643" y1="118.5938" y2="359.3281"/></g><g><title>Base de donn.es</title><rect fill="#000000" fill-opacity="0.00000" height="240.7344" width="8" x="527.5161" y="118.5938"/><line style="stroke:#181818;stroke-width:0.5;stroke-dasharray:5,5;" x1="531.4111" x2="531.4111" y1="118.5938" y2="359.3281"/></g><g class="participant participant-head" data-participant="User"><text fill="#000000" font-family="sans-serif" font-size="14" lengthAdjust="spacing" textLength="72.0098" x="5" y="115.292">Utilisateur</text><ellipse cx="44.0049" cy="50.7969" fill="#E2E2F0" rx="8" ry="8" style="stroke:#181818;stroke-width:0.5;"/><path d="M44.0049,58.7969 L44.0049,85.7969 M31.0049,66.7969 L57.0049,66.7969 M44.0049,85.7969 L31.0049,100.7969 M44.0049,85.7969 L57.0049,100.7969" fill="none" style="stroke:#181818;stroke-width:0.5;"/></g><g class="participant participant-tail" data-participant="User"><text fill="#000000" font-family="sans-serif" font-size="14" lengthAdjust="spacing" textLength="72.0098" x="5" y="371.3232">Utilisateur</text><ellipse cx="44.0049" cy="383.125" fill="#E2E2F0" rx="8" ry="8" style="stroke:#181818;stroke-width:0.5;"/><path d="M44.0049,391.125 L44.0049,418.125 M31.0049,399.125 L57.0049,399.125 M44.0049,418.125 L31.0049,433.125 M44.0049,418.125 L57.0049,433.125" fill="none" style="stroke:#181818;stroke-width:0.5;"/></g><g class="participant participant-head" data-participant="UI"><text fill="#000000" font-family="sans-serif" font-size="14" lengthAdjust="spacing" textLength="130.416" x="112.563" y="115.292">UI Authentification</text><path d="M160.271,74.2969 L160.271,98.2969 M160.271,86.2969 L177.271,86.2969" fill="none" style="stroke:#181818;stroke-width:0.5;"/><ellipse cx="189.271" cy="86.2969" fill="#E2E2F0" rx="12" ry="12" style="stroke:#181818;stroke-width:0.5;"/></g><g class="participant participant-tail" data-participant="UI"><text fill="#000000" font-family="sans-serif" font-size="14" lengthAdjust="spacing" textLength="130.416" x="112.563" y="371.3232">UI Authentification</text><path d="M160.271,378.625 L160.271,402.625 M160.271,390.625 L177.271,390.625" fill="none" style="stroke:#181818;stroke-width:0.5;"/><ellipse cx="189.271" cy="390.625" fill="#E2E2F0" rx="12" ry="12" style="stroke:#181818;stroke-width:0.5;"/></g><g class="participant participant-head" data-participant="Controller"><text fill="#000000" font-family="sans-serif" font-size="14" lengthAdjust="spacing" textLength="74.1563" x="333.8643" y="115.292">Contr&#244;leur</text><ellipse cx="373.9424" cy="86.2969" fill="#E2E2F0" rx="12" ry="12" style="stroke:#181818;stroke-width:0.5;"/><polygon fill="#181818" points="369.9424,74.2969,375.9424,69.2969,373.9424,74.2969,375.9424,79.2969,369.9424,74.2969" style="stroke:#181818;stroke-width:1;"/></g><g class="participant participant-tail" data-participant="Controller"><text fill="#000000" font-family="sans-serif" font-size="14" lengthAdjust="spacing" textLength="74.1563" x="333.8643" y="371.3232">Contr&#244;leur</text><ellipse cx="373.9424" cy="390.625" fill="#E2E2F0" rx="12" ry="12" style="stroke:#181818;stroke-width:0.5;"/><polygon fill="#181818" points="369.9424,378.625,375.9424,373.625,373.9424,378.625,375.9424,383.625,369.9424,378.625" style="stroke:#181818;stroke-width:1;"/></g><g class="participant participant-head" data-participant="DB"><text fill="#000000" font-family="sans-serif" font-size="14" lengthAdjust="spacing" textLength="120.21" x="468.4111" y="115.292">Base de donn&#233;es</text><ellipse cx="531.5161" cy="86.2969" fill="#E2E2F0" rx="12" ry="12" style="stroke:#181818;stroke-width:0.5;"/><line style="stroke:#181818;stroke-width:0.5;" x1="519.5161" x2="543.5161" y1="100.2969" y2="100.2969"/></g><g class="participant participant-tail" data-participant="DB"><text fill="#000000" font-family="sans-serif" font-size="14" lengthAdjust="spacing" textLength="120.21" x="468.4111" y="371.3232">Base de donn&#233;es</text><ellipse cx="531.5161" cy="390.625" fill="#E2E2F0" rx="12" ry="12" style="stroke:#181818;stroke-width:0.5;"/><line style="stroke:#181818;stroke-width:0.5;" x1="519.5161" x2="543.5161" y1="404.625" y2="404.625"/></g><g class="message" data-participant-1="User" data-participant-2="UI"><polygon fill="#181818" points="168.771,145.7266,178.771,149.7266,168.771,153.7266,172.771,149.7266" style="stroke:#181818;stroke-width:1;"/><line style="stroke:#181818;stroke-width:1;" x1="44.0049" x2="174.771" y1="149.7266" y2="149.7266"/><text fill="#000000" font-family="sans-serif" font-size="13" lengthAdjust="spacing" textLength="112.7661" x="51.0049" y="144.6606">Saisir identifiants</text></g><g class="message" data-participant-1="UI" data-participant-2="Controller"><polygon fill="#181818" points="361.9424,174.8594,371.9424,178.8594,361.9424,182.8594,365.9424,178.8594" style="stroke:#181818;stroke-width:1;"/><line style="stroke:#181818;stroke-width:1;" x1="180.771" x2="367.9424" y1="178.8594" y2="178.8594"/><text fill="#000000" font-family="sans-serif" font-size="13" lengthAdjust="spacing" textLength="130.3428" x="187.771" y="173.7935">Envoyer identifiants</text></g><g class="message" data-participant-1="Controller" data-participant-2="DB"><polygon fill="#181818" points="519.5161,203.9922,529.5161,207.9922,519.5161,211.9922,523.5161,207.9922" style="stroke:#181818;stroke-width:1;"/><line style="stroke:#181818;stroke-width:1;" x1="373.9424" x2="525.5161" y1="207.9922" y2="207.9922"/><text fill="#000000" font-family="sans-serif" font-size="13" lengthAdjust="spacing" textLength="133.5737" x="380.9424" y="202.9263">V&#233;rifier dans la base</text></g><g class="message" data-participant-1="DB" data-participant-2="Controller"><polygon fill="#181818" points="384.9424,233.125,374.9424,237.125,384.9424,241.125,380.9424,237.125" style="stroke:#181818;stroke-width:1;"/><line style="stroke:#181818;stroke-width:1;stroke-dasharray:2,2;" x1="378.9424" x2="530.5161" y1="237.125" y2="237.125"/><text fill="#000000" font-family="sans-serif" font-size="13" lengthAdjust="spacing" textLength="109.9858" x="390.9424" y="232.0591">R&#233;sultat (OK/KO)</text></g><path d="M102.563,252.125 L167.0059,252.125 L167.0059,259.2578 L157.0059,269.2578 L102.563,269.2578 L102.563,252.125" fill="#EEEEEE" style="stroke:#000000;stroke-width:1.5;"/><rect fill="none" height="90.2031" style="stroke:#000000;stroke-width:1.5;" width="321.4575" x="102.563" y="252.125"/><text fill="#000000" font-family="sans-serif" font-size="13" font-weight="bold" lengthAdjust="spacing" textLength="19.4429" x="117.563" y="265.1919">alt</text><text fill="#000000" font-family="sans-serif" font-size="11" font-weight="bold" lengthAdjust="spacing" textLength="52.8569" x="182.0059" y="264.3354">[Succ&#232;s]</text><g class="message" data-participant-1="Controller" data-participant-2="UI"><polygon fill="#181818" points="191.771,286.3906,181.771,290.3906,191.771,294.3906,187.771,290.3906" style="stroke:#181818;stroke-width:1;"/><line style="stroke:#181818;stroke-width:1;" x1="185.771" x2="372.9424" y1="290.3906" y2="290.3906"/><text fill="#000000" font-family="sans-serif" font-size="13" lengthAdjust="spacing" textLength="166.2769" x="197.771" y="285.3247">Rediriger vers Dashboard</text></g><line style="stroke:#000000;stroke-width:1;stroke-dasharray:2,2;" x1="102.563" x2="424.0205" y1="299.3906" y2="299.3906"/><text fill="#000000" font-family="sans-serif" font-size="11" font-weight="bold" lengthAdjust="spacing" textLength="45.9014" x="107.563" y="309.6011">[&#201;chec]</text><g class="message" data-participant-1="Controller" data-participant-2="UI"><polygon fill="#181818" points="191.771,330.3281,181.771,334.3281,191.771,338.3281,187.771,334.3281" style="stroke:#181818;stroke-width:1;"/><line style="stroke:#181818;stroke-width:1;" x1="185.771" x2="372.9424" y1="334.3281" y2="334.3281"/><text fill="#000000" font-family="sans-serif" font-size="13" lengthAdjust="spacing" textLength="169.1714" x="197.771" y="329.2622">Afficher message d'erreur</text></g><!--SRC=[TP0nRiCm34LtdOBmqdO8kdSe42STWWm1OhWxBJ6n04L2HJf0Zj2Rr7jle8kLTeQsAIfe4FWVFwalNW91KyQtWQ8bMC1oa9wY-8EtA3v5Oz1Aoj2A3vvHQCY032rJDbqQeiDyWQhT_6ciPcnZR8gIKu1gDJtAPr27MLjTXQ16Kv-eJOrCuFIc6Cj8F7FhsfXf72oUrG-Ue47FFeDtrt4OXOqAAdzRAlOIp-b2DzmFGlbrhTnh6RFAMd4O6G92fsiOrHQtblioyX041UvtsyVjxa7J2GBDO6tvO0DwVW-OzzsJyzaVjNAchFz1xhk4sHaA-jtoRdko__Kk3vfdhuKJCUDHexcZd3L2pSnz0G00]--></g></svg>