<svg xmlns="http://www.w3.org/2000/svg" xmlns:xlink="http://www.w3.org/1999/xlink" contentStyleType="text/css" data-diagram-type="SEQUENCE" height="365px" preserveAspectRatio="none" style="width:809px;height:365px;background:#FFFFFF;" version="1.1" viewBox="0 0 809 365" width="809px" zoomAndPan="magnify"><title>S&#233;quence - Module &#201;metteur VHF</title><defs/><g><text fill="#000000" font-family="sans-serif" font-size="14" font-weight="bold" lengthAdjust="spacing" textLength="265.4736" x="273.7622" y="27.9951">S&#233;quence - Module &#201;metteur VHF</text><g><title>Utilisateur</title><rect fill="#000000" fill-opacity="0.00000" height="165.6641" width="8" x="40.0049" y="118.5938"/><line style="stroke:#181818;stroke-width:0.5;stroke-dasharray:5,5;" x1="44" x2="44" y1="118.5938" y2="284.2578"/></g><g><title>UI .metteur</title><rect fill="#000000" fill-opacity="0.00000" height="165.6641" width="8" x="254.7583" y="118.5938"/><line style="stroke:#181818;stroke-width:0.5;stroke-dasharray:5,5;" x1="258.6865" x2="258.6865" y1="118.5938" y2="284.2578"/></g><g><title>Contr.leur</title><rect fill="#000000" fill-opacity="0.00000" height="165.6641" width="8" x="471.3843" y="118.5938"/><line style="stroke:#181818;stroke-width:0.5;stroke-dasharray:5,5;" x1="475.3062" x2="475.3062" y1="118.5938" y2="284.2578"/></g><g><title>.metteur VHF</title><rect fill="#000000" fill-opacity="0.00000" height="165.6641" width="8" x="753.0356" y="118.5938"/><line style="stroke:#181818;stroke-width:0.5;stroke-dasharray:5,5;" x1="756.0732" x2="756.0732" y1="118.5938" y2="284.2578"/></g><g class="participant participant-head" data-participant="User"><text fill="#000000" font-family="sans-serif" font-size="14" lengthAdjust="spacing" textLength="72.0098" x="5" y="115.292">Utilisateur</text><ellipse cx="44.0049" cy="50.7969" fill="#E2E2F0" rx="8" ry="8" style="stroke:#181818;stroke-width:0.5;"/><path d="M44.0049,58.7969 L44.0049,85.7969 M31.0049,66.7969 L57.0049,66.7969 M44.0049,85.7969 L31.0049,100.7969 M44.0049,85.7969 L57.0049,100.7969" fill="none" style="stroke:#181818;stroke-width:0.5;"/></g><g class="participant participant-tail" data-participant="User"><text fill="#000000" font-family="sans-serif" font-size="14" lengthAdjust="spacing" textLength="72.0098" x="5" y="296.2529">Utilisateur</text><ellipse cx="44.0049" cy="308.0547" fill="#E2E2F0" rx="8" ry="8" style="stroke:#181818;stroke-width:0.5;"/><path d="M44.0049,316.0547 L44.0049,343.0547 M31.0049,324.0547 L57.0049,324.0547 M44.0049,343.0547 L31.0049,358.0547 M44.0049,343.0547 L57.0049,358.0547" fill="none" style="stroke:#181818;stroke-width:0.5;"/></g><g class="participant participant-head" data-participant="UI"><text fill="#000000" font-family="sans-serif" font-size="14" lengthAdjust="spacing" textLength="84.1436" x="213.6865" y="115.292">UI &#201;metteur</text><path d="M238.2583,74.2969 L238.2583,98.2969 M238.2583,86.2969 L255.2583,86.2969" fill="none" style="stroke:#181818;stroke-width:0.5;"/><ellipse cx="267.2583" cy="86.2969" fill="#E2E2F0" rx="12" ry="12" style="stroke:#181818;stroke-width:0.5;"/></g><g class="participant participant-tail" data-participant="UI"><text fill="#000000" font-family="sans-serif" font-size="14" lengthAdjust="spacing" textLength="84.1436" x="213.6865" y="296.2529">UI &#201;metteur</text><path d="M238.2583,303.5547 L238.2583,327.5547 M238.2583,315.5547 L255.2583,315.5547" fill="none" style="stroke:#181818;stroke-width:0.5;"/><ellipse cx="267.2583" cy="315.5547" fill="#E2E2F0" rx="12" ry="12" style="stroke:#181818;stroke-width:0.5;"/></g><g class="participant participant-head" data-participant="Controller"><text fill="#000000" font-family="sans-serif" font-size="14" lengthAdjust="spacing" textLength="74.1563" x="435.3062" y="115.292">Contr&#244;leur</text><ellipse cx="475.3843" cy="86.2969" fill="#E2E2F0" rx="12" ry="12" style="stroke:#181818;stroke-width:0.5;"/><polygon fill="#181818" points="471.3843,74.2969,477.3843,69.2969,475.3843,74.2969,477.3843,79.2969,471.3843,74.2969" style="stroke:#181818;stroke-width:1;"/></g><g class="participant participant-tail" data-participant="Controller"><text fill="#000000" font-family="sans-serif" font-size="14" lengthAdjust="spacing" textLength="74.1563" x="435.3062" y="296.2529">Contr&#244;leur</text><ellipse cx="475.3843" cy="315.5547" fill="#E2E2F0" rx="12" ry="12" style="stroke:#181818;stroke-width:0.5;"/><polygon fill="#181818" points="471.3843,303.5547,477.3843,298.5547,475.3843,303.5547,477.3843,308.5547,471.3843,303.5547" style="stroke:#181818;stroke-width:1;"/></g><g class="participant participant-head" data-participant="TX"><text fill="#000000" font-family="sans-serif" font-size="14" lengthAdjust="spacing" textLength="97.9248" x="705.0732" y="115.292">&#201;metteur VHF</text><ellipse cx="757.0356" cy="86.2969" fill="#E2E2F0" rx="12" ry="12" style="stroke:#181818;stroke-width:0.5;"/><line style="stroke:#181818;stroke-width:0.5;" x1="745.0356" x2="769.0356" y1="100.2969" y2="100.2969"/></g><g class="participant participant-tail" data-participant="TX"><text fill="#000000" font-family="sans-serif" font-size="14" lengthAdjust="spacing" textLength="97.9248" x="705.0732" y="296.2529">&#201;metteur VHF</text><ellipse cx="757.0356" cy="315.5547" fill="#E2E2F0" rx="12" ry="12" style="stroke:#181818;stroke-width:0.5;"/><line style="stroke:#181818;stroke-width:0.5;" x1="745.0356" x2="769.0356" y1="329.5547" y2="329.5547"/></g><g class="message" data-participant-1="User" data-participant-2="UI"><polygon fill="#181818" points="246.7583,145.7266,256.7583,149.7266,246.7583,153.7266,250.7583,149.7266" style="stroke:#181818;stroke-width:1;"/><line style="stroke:#181818;stroke-width:1;" x1="44.0049" x2="252.7583" y1="149.7266" y2="149.7266"/><text fill="#000000" font-family="sans-serif" font-size="13" lengthAdjust="spacing" textLength="190.7534" x="51.0049" y="144.6606">Acc&#233;der au module &#201;metteur</text></g><g class="message" data-participant-1="UI" data-participant-2="Controller"><polygon fill="#181818" points="463.3843,174.8594,473.3843,178.8594,463.3843,182.8594,467.3843,178.8594" style="stroke:#181818;stroke-width:1;"/><line style="stroke:#181818;stroke-width:1;" x1="258.7583" x2="469.3843" y1="178.8594" y2="178.8594"/><text fill="#000000" font-family="sans-serif" font-size="13" lengthAdjust="spacing" textLength="192.626" x="265.7583" y="173.7935">Demander donn&#233;es &#233;metteur</text></g><g class="message" data-participant-1="Controller" data-participant-2="TX"><polygon fill="#181818" points="745.0356,203.9922,755.0356,207.9922,745.0356,211.9922,749.0356,207.9922" style="stroke:#181818;stroke-width:1;"/><line style="stroke:#181818;stroke-width:1;" x1="475.3843" x2="751.0356" y1="207.9922" y2="207.9922"/><text fill="#000000" font-family="sans-serif" font-size="13" lengthAdjust="spacing" textLength="257.6514" x="482.3843" y="202.9263">Lire fr&#233;quence, puissance, temp&#233;rature</text></g><g class="message" data-participant-1="TX" data-participant-2="Controller"><polygon fill="#181818" points="486.3843,233.125,476.3843,237.125,486.3843,241.125,482.3843,237.125" style="stroke:#181818;stroke-width:1;"/><line style="stroke:#181818;stroke-width:1;stroke-dasharray:2,2;" x1="480.3843" x2="756.0356" y1="237.125" y2="237.125"/><text fill="#000000" font-family="sans-serif" font-size="13" lengthAdjust="spacing" textLength="132.939" x="492.3843" y="232.0591">Donn&#233;es techniques</text></g><g class="message" data-participant-1="Controller" data-participant-2="UI"><polygon fill="#181818" points="269.7583,262.2578,259.7583,266.2578,269.7583,270.2578,265.7583,266.2578" style="stroke:#181818;stroke-width:1;"/><line style="stroke:#181818;stroke-width:1;" x1="263.7583" x2="474.3843" y1="266.2578" y2="266.2578"/><text fill="#000000" font-family="sans-serif" font-size="13" lengthAdjust="spacing" textLength="129.9238" x="275.7583" y="261.1919">Afficher param&#232;tres</text></g><!--SRC=[PP11JiCm44NtFiKew-O2B91G4Q8IhDgWRWTdebfox30UBpX2RuBttC0NOv8gAfJTwC_x_uyjJZp1lfQFJC4IjF0Q-wnIFOyaGfdXxVd96BGI6JfntYLSP4pG9MBp7dFeaJ-XwNPNLxFiTyR681mzDDjvgDz-tMql2wy95CI9-lzKBj3XQCnS0kszXi4TF5XRIwy2PXXl3ZLAA7SDLlwHHWmptySGQg44jQpuBr1jXwFYBuu91bv_OmDJTYdXCWgDKosCafcCqks_hhL2o9w2quXqqt5vmZ0uUr9XGiQnVWbJ-W40]--></g></svg>