<svg xmlns="http://www.w3.org/2000/svg" xmlns:xlink="http://www.w3.org/1999/xlink" contentStyleType="text/css" data-diagram-type="DESCRIPTION" height="446px" preserveAspectRatio="none" style="width:1207px;height:446px;background:#FFFFFF;" version="1.1" viewBox="0 0 1207 446" width="1207px" zoomAndPan="magnify"><title>Acteurs de l'application de supervision VHF</title><defs/><g><g class="title" data-source-line="1"><text fill="#000000" font-family="sans-serif" font-size="14" font-weight="bold" lengthAdjust="spacing" textLength="344.4014" x="424.2993" y="22.9951">Acteurs de l'application de supervision VHF</text></g><!--cluster Acteurs Humains--><g class="cluster" data-entity="Acteurs Humains" data-source-line="4" data-uid="ent0002" id="cluster_Acteurs Humains"><path d="M528.5,43.2969 L663.7168,43.2969 A3.75,3.75 0 0 1 666.2168,45.7969 L673.2168,65.5938 L673.5,65.5938 A2.5,2.5 0 0 1 676,68.0938 L676,168.0869 A2.5,2.5 0 0 1 673.5,170.5869 L528.5,170.5869 A2.5,2.5 0 0 1 526,168.0869 L526,45.7969 A2.5,2.5 0 0 1 528.5,43.2969" fill="none" style="stroke:#000000;stroke-width:1.5;"/><line style="stroke:#000000;stroke-width:1.5;" x1="526" x2="673.2168" y1="65.5938" y2="65.5938"/><text fill="#000000" font-family="sans-serif" font-size="14" font-weight="bold" lengthAdjust="spacing" textLength="134.2168" x="530" y="58.292">Acteurs Humains</text></g><!--cluster Acteurs Mat?riels--><g class="cluster" data-entity="Acteurs Mat.riels" data-source-line="9" data-uid="ent0004" id="cluster_Acteurs Mat.riels"><path d="M573.5,311.9369 L713.7959,311.9369 A3.75,3.75 0 0 1 716.2959,314.4369 L723.2959,334.2338 L942.5,334.2338 A2.5,2.5 0 0 1 945,336.7338 L945,436.7369 A2.5,2.5 0 0 1 942.5,439.2369 L573.5,439.2369 A2.5,2.5 0 0 1 571,436.7369 L571,314.4369 A2.5,2.5 0 0 1 573.5,311.9369" fill="none" style="stroke:#000000;stroke-width:1.5;"/><line style="stroke:#000000;stroke-width:1.5;" x1="571" x2="723.2959" y1="334.2338" y2="334.2338"/><text fill="#000000" font-family="sans-serif" font-size="14" font-weight="bold" lengthAdjust="spacing" textLength="139.2959" x="575" y="326.932">Acteurs Mat&#233;riels</text></g><!--cluster Acteurs Logiciels--><g class="cluster" data-entity="Acteurs Logiciels" data-source-line="16" data-uid="ent0008" id="cluster_Acteurs Logiciels"><path d="M26.5,311.9369 L161.9834,311.9369 A3.75,3.75 0 0 1 164.4834,314.4369 L171.4834,334.2338 L406.5,334.2338 A2.5,2.5 0 0 1 409,336.7338 L409,436.7369 A2.5,2.5 0 0 1 406.5,439.2369 L26.5,439.2369 A2.5,2.5 0 0 1 24,436.7369 L24,314.4369 A2.5,2.5 0 0 1 26.5,311.9369" fill="none" style="stroke:#000000;stroke-width:1.5;"/><line style="stroke:#000000;stroke-width:1.5;" x1="24" x2="171.4834" y1="334.2338" y2="334.2338"/><text fill="#000000" font-family="sans-serif" font-size="14" font-weight="bold" lengthAdjust="spacing" textLength="134.4834" x="28" y="326.932">Acteurs Logiciels</text></g><!--cluster Application de Supervision VHF--><g class="cluster" data-entity="Application de Supervision VHF" data-source-line="22" data-uid="ent0011" id="cluster_Application de Supervision VHF"><rect fill="none" height="93.35" rx="2.5" ry="2.5" style="stroke:#181818;stroke-width:1;" width="1194" x="7" y="194.5869"/><text fill="#000000" font-family="sans-serif" font-size="14" font-weight="bold" lengthAdjust="spacing" textLength="248.6641" x="479.668" y="209.582">Application de Supervision VHF</text></g><!--entity User--><g class="entity" data-entity="User" data-source-line="5" data-uid="ent0003" id="entity_User"><ellipse cx="601.0049" cy="86.7969" fill="#F1F1F1" rx="8" ry="8" style="stroke:#181818;stroke-width:0.5;"/><path d="M601.0049,94.7969 L601.0049,121.7969 M588.0049,102.7969 L614.0049,102.7969 M601.0049,121.7969 L588.0049,136.7969 M601.0049,121.7969 L614.0049,136.7969" fill="none" style="stroke:#181818;stroke-width:0.5;"/><text fill="#000000" font-family="sans-serif" font-size="14" lengthAdjust="spacing" textLength="72.0098" x="565" y="151.292">Utilisateur</text></g><!--entity TX--><g class="entity" data-entity="TX" data-source-line="10" data-uid="ent0005" id="entity_TX"><ellipse cx="636.0024" cy="355.4369" fill="#F1F1F1" rx="8" ry="8" style="stroke:#181818;stroke-width:0.5;"/><path d="M636.0024,363.4369 L636.0024,390.4369 M623.0024,371.4369 L649.0024,371.4369 M636.0024,390.4369 L623.0024,405.4369 M636.0024,390.4369 L649.0024,405.4369" fill="none" style="stroke:#181818;stroke-width:0.5;"/><text fill="#000000" font-family="sans-serif" font-size="14" lengthAdjust="spacing" textLength="97.9248" x="587.04" y="419.932">&#201;metteur VHF</text></g><!--entity RX--><g class="entity" data-entity="RX" data-source-line="11" data-uid="ent0006" id="entity_RX"><ellipse cx="771.9985" cy="355.4369" fill="#F1F1F1" rx="8" ry="8" style="stroke:#181818;stroke-width:0.5;"/><path d="M771.9985,363.4369 L771.9985,390.4369 M758.9985,371.4369 L784.9985,371.4369 M771.9985,390.4369 L758.9985,405.4369 M771.9985,390.4369 L784.9985,405.4369" fill="none" style="stroke:#181818;stroke-width:0.5;"/><text fill="#000000" font-family="sans-serif" font-size="14" lengthAdjust="spacing" textLength="104.877" x="719.56" y="419.932">R&#233;cepteur VHF</text></g><!--entity SW--><g class="entity" data-entity="SW" data-source-line="12" data-uid="ent0007" id="entity_SW"><ellipse cx="893.9998" cy="355.4369" fill="#F1F1F1" rx="8" ry="8" style="stroke:#181818;stroke-width:0.5;"/><path d="M893.9998,363.4369 L893.9998,390.4369 M880.9998,371.4369 L906.9998,371.4369 M893.9998,390.4369 L880.9998,405.4369 M893.9998,390.4369 L906.9998,405.4369" fill="none" style="stroke:#181818;stroke-width:0.5;"/><text fill="#000000" font-family="sans-serif" font-size="14" lengthAdjust="spacing" textLength="69.1797" x="859.41" y="419.932">Basculeur</text></g><!--entity DB--><g class="entity" data-entity="DB" data-source-line="17" data-uid="ent0009" id="entity_DB"><ellipse cx="100.005" cy="355.4369" fill="#F1F1F1" rx="8" ry="8" style="stroke:#181818;stroke-width:0.5;"/><path d="M100.005,363.4369 L100.005,390.4369 M87.005,371.4369 L113.005,371.4369 M100.005,390.4369 L87.005,405.4369 M100.005,390.4369 L113.005,405.4369" fill="none" style="stroke:#181818;stroke-width:0.5;"/><text fill="#000000" font-family="sans-serif" font-size="14" lengthAdjust="spacing" textLength="120.21" x="39.9" y="419.932">Base de donn&#233;es</text></g><!--entity ExportSys--><g class="entity" data-entity="ExportSys" data-source-line="18" data-uid="ent0010" id="entity_ExportSys"><ellipse cx="293.997" cy="355.4369" fill="#F1F1F1" rx="8" ry="8" style="stroke:#181818;stroke-width:0.5;"/><path d="M293.997,363.4369 L293.997,390.4369 M280.997,371.4369 L306.997,371.4369 M293.997,390.4369 L280.997,405.4369 M293.997,390.4369 L306.997,405.4369" fill="none" style="stroke:#181818;stroke-width:0.5;"/><text fill="#000000" font-family="sans-serif" font-size="14" lengthAdjust="spacing" textLength="197.374" x="195.31" y="419.932">Syst&#232;me d'export PDF/Excel</text></g><!--entity UC1--><g class="entity" data-entity="UC1" data-source-line="23" data-uid="ent0012" id="entity_UC1"><ellipse cx="94.9969" cy="250.7643" fill="#F1F1F1" rx="72.0869" ry="16.8174" style="stroke:#181818;stroke-width:0.5;"/><text fill="#000000" font-family="sans-serif" font-size="14" lengthAdjust="spacing" textLength="111.5898" x="39.202" y="255.4127">Authentification</text></g><!--entity UC2--><g class="entity" data-entity="UC2" data-source-line="24" data-uid="ent0013" id="entity_UC2"><ellipse cx="703.9961" cy="250.7621" fill="#F1F1F1" rx="93.8761" ry="21.1752" style="stroke:#181818;stroke-width:0.5;"/><text fill="#000000" font-family="sans-serif" font-size="14" lengthAdjust="spacing" textLength="162.4629" x="622.7647" y="255.4105">Supervision Dashboard</text></g><!--entity UC3--><g class="entity" data-entity="UC3" data-source-line="25" data-uid="ent0014" id="entity_UC3"><ellipse cx="498.0032" cy="250.7695" fill="#F1F1F1" rx="76.9132" ry="17.7826" style="stroke:#181818;stroke-width:0.5;"/><text fill="#000000" font-family="sans-serif" font-size="14" lengthAdjust="spacing" textLength="123.3408" x="436.3328" y="255.418">Gestion &#201;metteur</text></g><!--entity UC4--><g class="entity" data-entity="UC4" data-source-line="26" data-uid="ent0015" id="entity_UC4"><ellipse cx="912.9974" cy="250.7644" fill="#F1F1F1" rx="79.8374" ry="18.3675" style="stroke:#181818;stroke-width:0.5;"/><text fill="#000000" font-family="sans-serif" font-size="14" lengthAdjust="spacing" textLength="130.293" x="847.8509" y="255.4128">Gestion R&#233;cepteur</text></g><!--entity UC5--><g class="entity" data-entity="UC5" data-source-line="27" data-uid="ent0016" id="entity_UC5"><ellipse cx="1106.002" cy="250.7633" fill="#F1F1F1" rx="78.532" ry="18.1064" style="stroke:#181818;stroke-width:0.5;"/><text fill="#000000" font-family="sans-serif" font-size="14" lengthAdjust="spacing" textLength="127.2031" x="1042.4004" y="255.4117">Gestion Basculeur</text></g><!--entity UC6--><g class="entity" data-entity="UC6" data-source-line="28" data-uid="ent0017" id="entity_UC6"><ellipse cx="294.0046" cy="250.7718" fill="#F1F1F1" rx="91.8746" ry="20.7749" style="stroke:#181818;stroke-width:0.5;"/><text fill="#000000" font-family="sans-serif" font-size="14" lengthAdjust="spacing" textLength="157.9717" x="215.0187" y="255.4202">Historique et Rapports</text></g><!--link User to UC1--><g class="link" data-entity-1="User" data-entity-2="UC1" data-source-line="32" data-uid="lnk18" id="link_User_UC1"><path d="M564.76,118.1069 C490.66,120.6169 317.64,132.3169 185,186.5869 C157.08,198.0069 133.8944,215.4908 116.7544,230.1908" fill="none" id="User-to-UC1" style="stroke:#181818;stroke-width:1;"/><polygon fill="#181818" points="112.2,234.0969,121.6357,231.2741,115.9953,230.8418,116.4276,225.2015,112.2,234.0969" style="stroke:#181818;stroke-width:1;"/></g><!--link User to UC2--><g class="link" data-entity-1="User" data-entity-2="UC2" data-source-line="33" data-uid="lnk19" id="link_User_UC2"><path d="M630.24,155.0069 C649.15,179.3069 669.345,205.2418 684.715,224.9918" fill="none" id="User-to-UC2" style="stroke:#181818;stroke-width:1;"/><polygon fill="#181818" points="688.4,229.7269,686.0293,220.1676,685.3292,225.781,679.7158,225.0809,688.4,229.7269" style="stroke:#181818;stroke-width:1;"/></g><!--link User to UC3--><g class="link" data-entity-1="User" data-entity-2="UC3" data-source-line="34" data-uid="lnk20" id="link_User_UC3"><path d="M571.76,155.0069 C551.78,180.6769 529.946,208.7326 514.756,228.2426" fill="none" id="User-to-UC3" style="stroke:#181818;stroke-width:1;"/><polygon fill="#181818" points="511.07,232.9769,519.7552,228.3328,514.1417,229.0316,513.4428,223.4181,511.07,232.9769" style="stroke:#181818;stroke-width:1;"/></g><!--link User to UC4--><g class="link" data-entity-1="User" data-entity-2="UC4" data-source-line="35" data-uid="lnk21" id="link_User_UC4"><path d="M637.3,126.0869 C680.77,137.1269 755.2,158.2469 815,186.5869 C842.44,199.5969 866.5032,215.5377 885.7532,229.4177" fill="none" id="User-to-UC4" style="stroke:#181818;stroke-width:1;"/><polygon fill="#181818" points="890.62,232.9269,885.6592,224.4186,886.5643,230.0026,880.9804,230.9077,890.62,232.9269" style="stroke:#181818;stroke-width:1;"/></g><!--link User to UC5--><g class="link" data-entity-1="User" data-entity-2="UC5" data-source-line="36" data-uid="lnk22" id="link_User_UC5"><path d="M637.34,118.5969 C710.41,121.9669 879.32,135.1869 1010,186.5869 C1038.59,197.8369 1062.8203,214.6995 1081.3303,229.3095" fill="none" id="User-to-UC5" style="stroke:#181818;stroke-width:1;"/><polygon fill="#181818" points="1086.04,233.0269,1081.4537,224.311,1082.1153,229.9291,1076.4972,230.5906,1086.04,233.0269" style="stroke:#181818;stroke-width:1;"/></g><!--link User to UC6--><g class="link" data-entity-1="User" data-entity-2="UC6" data-source-line="37" data-uid="lnk23" id="link_User_UC6"><path d="M564.63,128.0069 C524.5,140.1569 458.38,161.6869 404,186.5869 C375.77,199.5169 350.3726,214.2104 328.6626,227.6404" fill="none" id="User-to-UC6" style="stroke:#181818;stroke-width:1;"/><polygon fill="#181818" points="323.56,230.7969,333.3182,229.4638,327.8122,228.1665,329.1095,222.6604,323.56,230.7969" style="stroke:#181818;stroke-width:1;"/></g><!--link UC1 to DB--><g class="link" data-entity-1="UC1" data-entity-2="DB" data-source-line="39" data-uid="lnk24" id="link_UC1_DB"><path d="M95.61,267.9869 C96.35,287.4469 97.3735,314.7012 98.3535,340.6412" fill="none" id="UC1-to-DB" style="stroke:#181818;stroke-width:1;"/><polygon fill="#181818" points="98.58,346.6369,102.2374,337.4923,98.3912,341.6404,94.2431,337.7943,98.58,346.6369" style="stroke:#181818;stroke-width:1;"/></g><!--link UC2 to TX--><g class="link" data-entity-1="UC2" data-entity-2="TX" data-source-line="40" data-uid="lnk25" id="link_UC2_TX"><path d="M693.52,272.1469 C683.35,291.9369 670.4123,317.1202 657.9923,341.2902" fill="none" id="UC2-to-TX" style="stroke:#181818;stroke-width:1;"/><polygon fill="#181818" points="655.25,346.6269,662.9212,340.4501,657.5352,342.1797,655.8057,336.7937,655.25,346.6269" style="stroke:#181818;stroke-width:1;"/></g><!--link UC2 to RX--><g class="link" data-entity-1="UC2" data-entity-2="RX" data-source-line="41" data-uid="lnk26" id="link_UC2_RX"><path d="M714.48,272.1469 C724.65,291.9369 737.5877,317.1202 750.0077,341.2902" fill="none" id="UC2-to-RX" style="stroke:#181818;stroke-width:1;"/><polygon fill="#181818" points="752.75,346.6269,752.1943,336.7937,750.4648,342.1797,745.0788,340.4501,752.75,346.6269" style="stroke:#181818;stroke-width:1;"/></g><!--link UC2 to SW--><g class="link" data-entity-1="UC2" data-entity-2="SW" data-source-line="42" data-uid="lnk27" id="link_UC2_SW"><path d="M747.59,269.8669 C768.19,278.1869 793.22,287.9569 816,295.9369 C827.41,299.9369 832.35,296.6569 842,303.9369 C856.69,315.0369 865.4703,326.352 874.0403,341.532" fill="none" id="UC2-to-SW" style="stroke:#181818;stroke-width:1;"/><polygon fill="#181818" points="876.99,346.7569,876.0486,336.9531,874.5319,342.4028,869.0822,340.8861,876.99,346.7569" style="stroke:#181818;stroke-width:1;"/></g><!--link UC3 to TX--><g class="link" data-entity-1="UC3" data-entity-2="TX" data-source-line="43" data-uid="lnk28" id="link_UC3_TX"><path d="M515.48,268.5269 C535.86,288.0669 565.8394,316.814 592.6494,342.524" fill="none" id="UC3-to-TX" style="stroke:#181818;stroke-width:1;"/><polygon fill="#181818" points="596.98,346.6769,593.2528,337.5605,593.3712,343.2161,587.7156,343.3346,596.98,346.6769" style="stroke:#181818;stroke-width:1;"/></g><!--link UC4 to RX--><g class="link" data-entity-1="UC4" data-entity-2="RX" data-source-line="44" data-uid="lnk29" id="link_UC4_RX"><path d="M887.31,268.6069 C873.34,278.2569 856.08,290.9969 842,303.9369 C827.85,316.9469 817.5289,328.0293 805.6489,342.0493" fill="none" id="UC4-to-RX" style="stroke:#181818;stroke-width:1;"/><polygon fill="#181818" points="801.77,346.6269,810.64,342.3464,805.0024,342.8122,804.5366,337.1746,801.77,346.6269" style="stroke:#181818;stroke-width:1;"/></g><!--link UC5 to SW--><g class="link" data-entity-1="UC5" data-entity-2="SW" data-source-line="45" data-uid="lnk30" id="link_UC5_SW"><path d="M1079.58,268.2569 C1041.51,292.0169 976.2497,332.7496 933.9597,359.1496" fill="none" id="UC5-to-SW" style="stroke:#181818;stroke-width:1;"/><polygon fill="#181818" points="928.87,362.3269,938.6227,360.9541,933.1114,359.6791,934.3863,354.1678,928.87,362.3269" style="stroke:#181818;stroke-width:1;"/></g><!--link UC6 to DB--><g class="link" data-entity-1="UC6" data-entity-2="DB" data-source-line="46" data-uid="lnk31" id="link_UC6_DB"><path d="M245.56,268.7869 C223.88,277.5769 198.62,289.4969 178,303.9369 C160.82,315.9669 148.3128,327.6826 134.8928,342.3326" fill="none" id="UC6-to-DB" style="stroke:#181818;stroke-width:1;"/><polygon fill="#181818" points="130.84,346.7569,139.8688,342.8223,134.2174,343.07,133.9697,337.4185,130.84,346.7569" style="stroke:#181818;stroke-width:1;"/></g><!--link UC6 to ExportSys--><g class="link" data-entity-1="UC6" data-entity-2="ExportSys" data-source-line="47" data-uid="lnk32" id="link_UC6_ExportSys"><path d="M294,271.8569 C294,291.5969 294,316.1969 294,340.4569" fill="none" id="UC6-to-ExportSys" style="stroke:#181818;stroke-width:1;"/><polygon fill="#181818" points="294,346.4569,298,337.4569,294,341.4569,290,337.4569,294,346.4569" style="stroke:#181818;stroke-width:1;"/></g><!--SRC=[TPFFJiCm3CRlVGghbvqcnFuTa8OqDiOE8A6D0TUGcIqYQqkS8X3Y0NWJzXnzCPoiNLCqUegTN-slzbUhh4OOIOkv8LWXw9R8Cgsai2fDN8Bo3CsR8XVUpwPHr8BXS0XZOOlTEZKAuHJE3XKs-LQeX1mIPKA-Y3L2N5tEzfSnV4R0Zv0sDH0lhTAAX4DY40HBGXDz7UdJ2VfiNPgJ-fzMDuVxFzsAxorQnxYFyVtk7iFxUR6Jc3M0UGEu42HpNObTF1oLsWsawdIjf5UA5kY3RF6pnNzaNrVi7zNS5DqoLccI53iattjo4IABiZAiMlYUfSR2xMHwSlakKNlwqYUPgWMFWardHYLIPOBTu9GPb5OaQ-sqDVsmQFgX4feJIYSo7kLsWubLp-Kx-vsEJvjKM6KYQFEK2hCgqKuJlKBolG-RAx7kSQnUOCdrZdFDFIx7_IOsKyHZLQyvkhND-QVWwL793kePNYkXA6N7LoiyOH_mdzJAIrkxNcwYpjRGRf_xMGH19mowOT0BWtuO3AA8g_Y0JS0r_96DN1tdzP4TodLhe5S3_HeOrCNsnuDTVW40]--></g></svg>