<svg xmlns="http://www.w3.org/2000/svg" xmlns:xlink="http://www.w3.org/1999/xlink" contentStyleType="text/css" data-diagram-type="DESCRIPTION" height="343px" preserveAspectRatio="none" style="width:1208px;height:343px;background:#FFFFFF;" version="1.1" viewBox="0 0 1208 343" width="1208px" zoomAndPan="magnify"><title>Cas d'utilisation - &#201;metteur VHF</title><defs/><g><g class="title" data-source-line="1"><text fill="#000000" font-family="sans-serif" font-size="14" font-weight="bold" lengthAdjust="spacing" textLength="253.0938" x="470.7963" y="22.9951">Cas d'utilisation - &#201;metteur VHF</text></g><!--entity User--><g class="entity" data-entity="User" data-source-line="4" data-uid="ent0002" id="entity_User"><ellipse cx="578.3749" cy="165.9269" fill="#F1F1F1" rx="16" ry="16" style="stroke:#181818;stroke-width:0.5;"/><path d="M578.3749,185.9269 C582.3749,185.9269 585.3749,185.9269 589.3749,181.9269 C597.3749,181.9269 605.3749,189.9269 605.3749,197.9269 L605.3749,201.9269 C605.3749,205.9269 601.3749,209.9269 597.3749,209.9269 L559.3749,209.9269 C555.3749,209.9269 551.3749,205.9269 551.3749,201.9269 L551.3749,197.9269 C551.3749,189.9269 559.3749,181.9269 567.3749,181.9269 C571.3749,185.9269 574.3749,185.9269 578.3749,185.9269" fill="#F1F1F1" style="stroke:#181818;stroke-width:0.5;"/><text fill="#000000" font-family="sans-serif" font-size="14" lengthAdjust="spacing" textLength="72.0098" x="542.37" y="223.422">Utilisateur</text></g><!--entity UC1--><g class="entity" data-entity="UC1" data-source-line="5" data-uid="ent0003" id="entity_UC1"><ellipse cx="121.3725" cy="312.2114" fill="#F1F1F1" rx="115.3725" ry="25.4745" style="stroke:#181818;stroke-width:0.5;"/><text fill="#000000" font-family="sans-serif" font-size="14" lengthAdjust="spacing" textLength="209.4531" x="16.6459" y="316.8598">Afficher param&#232;tres &#233;metteur</text></g><!--entity UC2--><g class="entity" data-entity="UC2" data-source-line="6" data-uid="ent0004" id="entity_UC2"><ellipse cx="352.3654" cy="312.202" fill="#F1F1F1" rx="80.5254" ry="18.5051" style="stroke:#181818;stroke-width:0.5;"/><text fill="#000000" font-family="sans-serif" font-size="14" lengthAdjust="spacing" textLength="131.9131" x="286.4089" y="316.8504">Modifier fr&#233;quence</text></g><!--entity UC3--><g class="entity" data-entity="UC3" data-source-line="7" data-uid="ent0005" id="entity_UC3"><ellipse cx="578.3694" cy="312.2028" fill="#F1F1F1" rx="110.8794" ry="24.5759" style="stroke:#181818;stroke-width:0.5;"/><text fill="#000000" font-family="sans-serif" font-size="14" lengthAdjust="spacing" textLength="199.7803" x="478.4793" y="316.8512">R&#233;gler puissance d&#8217;&#233;mission</text></g><!--entity UC4--><g class="entity" data-entity="UC4" data-source-line="8" data-uid="ent0006" id="entity_UC4"><ellipse cx="835.373" cy="312.2055" fill="#F1F1F1" rx="111.443" ry="24.6886" style="stroke:#181818;stroke-width:0.5;"/><text fill="#000000" font-family="sans-serif" font-size="14" lengthAdjust="spacing" textLength="200.9971" x="734.8745" y="316.8539">Modifier Taux de modulation</text></g><!--entity UC5--><g class="entity" data-entity="UC5" data-source-line="9" data-uid="ent0007" id="entity_UC5"><ellipse cx="1092.3731" cy="312.2095" fill="#F1F1F1" rx="110.3131" ry="24.4626" style="stroke:#181818;stroke-width:0.5;"/><text fill="#000000" font-family="sans-serif" font-size="14" lengthAdjust="spacing" textLength="198.5566" x="993.0948" y="316.8579">Activer/D&#233;sactiver &#233;metteur</text></g><!--entity UC6--><g class="entity" data-entity="UC6" data-source-line="10" data-uid="ent0008" id="entity_UC6"><ellipse cx="578.3685" cy="66.3626" fill="#F1F1F1" rx="103.3285" ry="23.0657" style="stroke:#181818;stroke-width:0.5;"/><text fill="#000000" font-family="sans-serif" font-size="14" lengthAdjust="spacing" textLength="183.3672" x="486.6849" y="71.011">Recevoir alertes &#233;metteur</text></g><!--link User to UC1--><g class="link" data-entity-1="User" data-entity-2="UC1" data-source-line="12" data-uid="lnk9" id="link_User_UC1"><path d="M542.13,198.7669 C466.87,218.8769 298.2166,263.9479 199.1966,290.4079" fill="none" id="User-to-UC1" style="stroke:#181818;stroke-width:1;"/><polygon fill="#181818" points="193.4,291.9569,203.1276,293.4978,198.2305,290.6661,201.0623,285.769,193.4,291.9569" style="stroke:#181818;stroke-width:1;"/></g><!--link User to UC2--><g class="link" data-entity-1="User" data-entity-2="UC2" data-source-line="13" data-uid="lnk10" id="link_User_UC2"><path d="M542.06,208.6969 C497.89,232.5669 429.3985,269.5843 388.0785,291.9143" fill="none" id="User-to-UC2" style="stroke:#181818;stroke-width:1;"/><polygon fill="#181818" points="382.8,294.7669,392.6195,294.007,387.1988,292.3897,388.816,286.969,382.8,294.7669" style="stroke:#181818;stroke-width:1;"/></g><!--link User to UC3--><g class="link" data-entity-1="User" data-entity-2="UC3" data-source-line="14" data-uid="lnk11" id="link_User_UC3"><path d="M578.37,227.0469 C578.37,246.7969 578.37,264.3169 578.37,281.4669" fill="none" id="User-to-UC3" style="stroke:#181818;stroke-width:1;"/><polygon fill="#181818" points="578.37,287.4669,582.37,278.4669,578.37,282.4669,574.37,278.4669,578.37,287.4669" style="stroke:#181818;stroke-width:1;"/></g><!--link User to UC4--><g class="link" data-entity-1="User" data-entity-2="UC4" data-source-line="15" data-uid="lnk12" id="link_User_UC4"><path d="M614.65,206.3169 C660.45,228.0769 733.861,262.9612 783.871,286.7312" fill="none" id="User-to-UC4" style="stroke:#181818;stroke-width:1;"/><polygon fill="#181818" points="789.29,289.3069,782.8786,281.8307,784.7741,287.1605,779.4443,289.056,789.29,289.3069" style="stroke:#181818;stroke-width:1;"/></g><!--link User to UC5--><g class="link" data-entity-1="User" data-entity-2="UC5" data-source-line="16" data-uid="lnk13" id="link_User_UC5"><path d="M614.52,197.6669 C698.27,217.5669 901.1326,265.7597 1012.9826,292.3397" fill="none" id="User-to-UC5" style="stroke:#181818;stroke-width:1;"/><polygon fill="#181818" points="1018.82,293.7269,1010.9887,287.7544,1013.9555,292.5709,1009.139,295.5377,1018.82,293.7269" style="stroke:#181818;stroke-width:1;"/></g><!--reverse link UC6 to User--><g class="link" data-entity-1="UC6" data-entity-2="User" data-source-line="17" data-uid="lnk14" id="link_UC6_User"><path d="M578.37,95.8869 C578.37,112.5469 578.37,129.6369 578.37,149.1269" fill="none" id="UC6-backto-User" style="stroke:#181818;stroke-width:1;"/><polygon fill="#181818" points="578.37,89.8869,574.37,98.8869,578.37,94.8869,582.37,98.8869,578.37,89.8869" style="stroke:#181818;stroke-width:1;"/></g><!--SRC=[RP0zJiGm48LxdsAKXYf2x0yLGaAB40qDiFGZUm8ZaXWyumKwMex03SWvV1DEWZSRQIsndP_rtkVthAmjmGe5t55KRbbGsVTGG_hgI9LYW8VhAoFFtBzWm0xGgWzt-f5Z-4RYEp9cl8DgFG5og8ACN0i54uKi2a5rqJHidoZ0o4a_6aWW3TChky3gPE-_yOuRplucfE4rKczfCitsfjiqFBPRPcGHp1Pmlv_VcPfbtZ45vWUeznZVmH5qtiLs73sP5qLbgxoXS7oP1i7T-L_ZPL66B6qy1y1SIG-iEpLc-oTGr-VZraBCIZ4lnQ8KIvCfS5RNu-V-0G00]--></g></svg>