<svg xmlns="http://www.w3.org/2000/svg" xmlns:xlink="http://www.w3.org/1999/xlink" contentStyleType="text/css" data-diagram-type="CLASS" height="370px" preserveAspectRatio="none" style="width:833px;height:370px;background:#FFFFFF;" version="1.1" viewBox="0 0 833 370" width="833px" zoomAndPan="magnify"><title>Diagramme de classes - Supervision VHF</title><defs/><g><g class="title" data-source-line="1"><text fill="#000000" font-family="sans-serif" font-size="14" font-weight="bold" lengthAdjust="spacing" textLength="322.875" x="248.163" y="22.9951">Diagramme de classes - Supervision VHF</text></g><!--class Emetteur--><g class="entity" data-entity="Emetteur" data-source-line="7" data-uid="ent0002" id="entity_Emetteur"><rect fill="#F1F1F1" height="145.7813" rx="2.5" ry="2.5" style="stroke:#181818;stroke-width:0.5;" width="164.8311" x="7" y="44.2969"/><ellipse cx="52.5068" cy="60.2969" fill="#ADD1B2" rx="11" ry="11" style="stroke:#181818;stroke-width:1;"/><path d="M55.4756,65.9375 Q54.8975,66.2344 54.2568,66.375 Q53.6162,66.5313 52.9131,66.5313 Q50.4131,66.5313 49.085,64.8906 Q47.7725,63.2344 47.7725,60.1094 Q47.7725,56.9844 49.085,55.3281 Q50.4131,53.6719 52.9131,53.6719 Q53.6162,53.6719 54.2568,53.8281 Q54.9131,53.9844 55.4756,54.2813 L55.4756,57 Q54.8506,56.4219 54.2568,56.1563 Q53.6631,55.875 53.0381,55.875 Q51.6943,55.875 51.0068,56.9531 Q50.3193,58.0156 50.3193,60.1094 Q50.3193,62.2031 51.0068,63.2813 Q51.6943,64.3438 53.0381,64.3438 Q53.6631,64.3438 54.2568,64.0781 Q54.8506,63.7969 55.4756,63.2188 L55.4756,65.9375 Z " fill="#000000"/><text fill="#000000" font-family="sans-serif" font-size="14" lengthAdjust="spacing" textLength="65.3174" x="73.0068" y="65.1436">Emetteur</text><line style="stroke:#181818;stroke-width:0.5;" x1="8" x2="170.8311" y1="76.2969" y2="76.2969"/><text fill="#000000" font-family="sans-serif" font-size="14" lengthAdjust="spacing" textLength="152.8311" x="13" y="93.292">+frequencyMHz: float</text><text fill="#000000" font-family="sans-serif" font-size="14" lengthAdjust="spacing" textLength="104.0498" x="13" y="109.5889">+powerPct: int</text><text fill="#000000" font-family="sans-serif" font-size="14" lengthAdjust="spacing" textLength="150.4316" x="13" y="125.8857">+temperatureC: float</text><text fill="#000000" font-family="sans-serif" font-size="14" lengthAdjust="spacing" textLength="80.3633" x="13" y="142.1826">+tdm: float</text><text fill="#000000" font-family="sans-serif" font-size="14" lengthAdjust="spacing" textLength="68.7832" x="13" y="158.4795">+ROS: int</text><text fill="#000000" font-family="sans-serif" font-size="14" lengthAdjust="spacing" textLength="107.1465" x="13" y="174.7764">+enabled: bool</text><line style="stroke:#181818;stroke-width:0.5;" x1="8" x2="170.8311" y1="182.0781" y2="182.0781"/></g><!--class R?cepteur--><g class="entity" data-entity="R.cepteur" data-source-line="16" data-uid="ent0003" id="entity_R.cepteur"><rect fill="#F1F1F1" height="145.7813" rx="2.5" ry="2.5" style="stroke:#181818;stroke-width:0.5;" width="164.8311" x="207" y="44.2969"/><ellipse cx="249.2527" cy="60.2969" fill="#ADD1B2" rx="11" ry="11" style="stroke:#181818;stroke-width:1;"/><path d="M252.2214,65.9375 Q251.6433,66.2344 251.0027,66.375 Q250.3621,66.5313 249.6589,66.5313 Q247.1589,66.5313 245.8308,64.8906 Q244.5183,63.2344 244.5183,60.1094 Q244.5183,56.9844 245.8308,55.3281 Q247.1589,53.6719 249.6589,53.6719 Q250.3621,53.6719 251.0027,53.8281 Q251.6589,53.9844 252.2214,54.2813 L252.2214,57 Q251.5964,56.4219 251.0027,56.1563 Q250.4089,55.875 249.7839,55.875 Q248.4402,55.875 247.7527,56.9531 Q247.0652,58.0156 247.0652,60.1094 Q247.0652,62.2031 247.7527,63.2813 Q248.4402,64.3438 249.7839,64.3438 Q250.4089,64.3438 251.0027,64.0781 Q251.5964,63.7969 252.2214,63.2188 L252.2214,65.9375 Z " fill="#000000"/><text fill="#000000" font-family="sans-serif" font-size="14" lengthAdjust="spacing" textLength="72.2695" x="269.3088" y="65.1436">R&#233;cepteur</text><line style="stroke:#181818;stroke-width:0.5;" x1="208" x2="370.8311" y1="76.2969" y2="76.2969"/><text fill="#000000" font-family="sans-serif" font-size="14" lengthAdjust="spacing" textLength="152.8311" x="213" y="93.292">+frequencyMHz: float</text><text fill="#000000" font-family="sans-serif" font-size="14" lengthAdjust="spacing" textLength="104.0498" x="213" y="109.5889">+powerPct: int</text><text fill="#000000" font-family="sans-serif" font-size="14" lengthAdjust="spacing" textLength="150.4316" x="213" y="125.8857">+temperatureC: float</text><text fill="#000000" font-family="sans-serif" font-size="14" lengthAdjust="spacing" textLength="115.7119" x="213" y="142.1826">+rssi_dBm: float</text><text fill="#000000" font-family="sans-serif" font-size="14" lengthAdjust="spacing" textLength="115.0762" x="213" y="158.4795">+noise_dB: float</text><text fill="#000000" font-family="sans-serif" font-size="14" lengthAdjust="spacing" textLength="93.2764" x="213" y="174.7764">+squelch: int</text><line style="stroke:#181818;stroke-width:0.5;" x1="208" x2="370.8311" y1="182.0781" y2="182.0781"/></g><!--class Basculeur--><g class="entity" data-entity="Basculeur" data-source-line="25" data-uid="ent0004" id="entity_Basculeur"><rect fill="#F1F1F1" height="80.5938" rx="2.5" ry="2.5" style="stroke:#181818;stroke-width:0.5;" width="267.2607" x="406.79" y="76.8869"/><ellipse cx="501.5805" cy="92.8869" fill="#ADD1B2" rx="11" ry="11" style="stroke:#181818;stroke-width:1;"/><path d="M504.5493,98.5275 Q503.9712,98.8244 503.3305,98.965 Q502.6899,99.1213 501.9868,99.1213 Q499.4868,99.1213 498.1587,97.4806 Q496.8462,95.8244 496.8462,92.6994 Q496.8462,89.5744 498.1587,87.9181 Q499.4868,86.2619 501.9868,86.2619 Q502.6899,86.2619 503.3305,86.4181 Q503.9868,86.5744 504.5493,86.8713 L504.5493,89.59 Q503.9243,89.0119 503.3305,88.7463 Q502.7368,88.465 502.1118,88.465 Q500.768,88.465 500.0805,89.5431 Q499.393,90.6056 499.393,92.6994 Q499.393,94.7931 500.0805,95.8713 Q500.768,96.9338 502.1118,96.9338 Q502.7368,96.9338 503.3305,96.6681 Q503.9243,96.3869 504.5493,95.8088 L504.5493,98.5275 Z " fill="#000000"/><text fill="#000000" font-family="sans-serif" font-size="14" lengthAdjust="spacing" textLength="69.1797" x="522.0805" y="97.7336">Basculeur</text><line style="stroke:#181818;stroke-width:0.5;" x1="407.79" x2="673.0507" y1="108.8869" y2="108.8869"/><text fill="#000000" font-family="sans-serif" font-size="14" lengthAdjust="spacing" textLength="255.2607" x="412.79" y="125.882">+activePath: str &#171;Principal|Secours&#187;</text><text fill="#000000" font-family="sans-serif" font-size="14" lengthAdjust="spacing" textLength="138.8857" x="412.79" y="142.1789">+autoEnabled: bool</text><line style="stroke:#181818;stroke-width:0.5;" x1="407.79" x2="673.0507" y1="149.4806" y2="149.4806"/></g><!--class Alert--><g class="entity" data-entity="Alert" data-source-line="30" data-uid="ent0005" id="entity_Alert"><rect fill="#F1F1F1" height="113.1875" rx="2.5" ry="2.5" style="stroke:#181818;stroke-width:0.5;" width="171.6123" x="328.61" y="250.0769"/><ellipse cx="393.5036" cy="266.0769" fill="#ADD1B2" rx="11" ry="11" style="stroke:#181818;stroke-width:1;"/><path d="M396.4723,271.7175 Q395.8942,272.0144 395.2536,272.155 Q394.6129,272.3113 393.9098,272.3113 Q391.4098,272.3113 390.0817,270.6706 Q388.7692,269.0144 388.7692,265.8894 Q388.7692,262.7644 390.0817,261.1081 Q391.4098,259.4519 393.9098,259.4519 Q394.6129,259.4519 395.2536,259.6081 Q395.9098,259.7644 396.4723,260.0613 L396.4723,262.78 Q395.8473,262.2019 395.2536,261.9363 Q394.6598,261.655 394.0348,261.655 Q392.6911,261.655 392.0036,262.7331 Q391.3161,263.7956 391.3161,265.8894 Q391.3161,267.9831 392.0036,269.0613 Q392.6911,270.1238 394.0348,270.1238 Q394.6598,270.1238 395.2536,269.8581 Q395.8473,269.5769 396.4723,268.9988 L396.4723,271.7175 Z " fill="#000000"/><text fill="#000000" font-family="sans-serif" font-size="14" lengthAdjust="spacing" textLength="33.3252" x="414.0036" y="270.9236">Alert</text><line style="stroke:#181818;stroke-width:0.5;" x1="329.61" x2="499.2223" y1="282.0769" y2="282.0769"/><text fill="#000000" font-family="sans-serif" font-size="14" lengthAdjust="spacing" textLength="51.9258" x="334.61" y="299.072">+id: int</text><text fill="#000000" font-family="sans-serif" font-size="14" lengthAdjust="spacing" textLength="159.6123" x="334.61" y="315.3689">+timestamp: datetime</text><text fill="#000000" font-family="sans-serif" font-size="14" lengthAdjust="spacing" textLength="70.7109" x="334.61" y="331.6657">+type: str</text><text fill="#000000" font-family="sans-serif" font-size="14" lengthAdjust="spacing" textLength="95.6621" x="334.61" y="347.9626">+severity: str</text><line style="stroke:#181818;stroke-width:0.5;" x1="329.61" x2="499.2223" y1="355.2644" y2="355.2644"/></g><!--class Historique--><g class="entity" data-entity="Historique" data-source-line="37" data-uid="ent0006" id="entity_Historique"><rect fill="#F1F1F1" height="96.8906" rx="2.5" ry="2.5" style="stroke:#181818;stroke-width:0.5;" width="117.5811" x="708.62" y="68.7469"/><ellipse cx="729.8286" cy="84.7469" fill="#ADD1B2" rx="11" ry="11" style="stroke:#181818;stroke-width:1;"/><path d="M732.7973,90.3875 Q732.2192,90.6844 731.5786,90.825 Q730.938,90.9813 730.2348,90.9813 Q727.7348,90.9813 726.4067,89.3406 Q725.0942,87.6844 725.0942,84.5594 Q725.0942,81.4344 726.4067,79.7781 Q727.7348,78.1219 730.2348,78.1219 Q730.938,78.1219 731.5786,78.2781 Q732.2348,78.4344 732.7973,78.7313 L732.7973,81.45 Q732.1723,80.8719 731.5786,80.6063 Q730.9848,80.325 730.3598,80.325 Q729.0161,80.325 728.3286,81.4031 Q727.6411,82.4656 727.6411,84.5594 Q727.6411,86.6531 728.3286,87.7313 Q729.0161,88.7938 730.3598,88.7938 Q730.9848,88.7938 731.5786,88.5281 Q732.1723,88.2469 732.7973,87.6688 L732.7973,90.3875 Z " fill="#000000"/><text fill="#000000" font-family="sans-serif" font-size="14" lengthAdjust="spacing" textLength="71.7842" x="745.2083" y="89.5936">Historique</text><line style="stroke:#181818;stroke-width:0.5;" x1="709.62" x2="825.2011" y1="100.7469" y2="100.7469"/><line style="stroke:#181818;stroke-width:0.5;" x1="709.62" x2="825.2011" y1="108.7469" y2="108.7469"/><text fill="#000000" font-family="sans-serif" font-size="14" lengthAdjust="spacing" textLength="102.9287" x="714.62" y="125.742">+query(filters)</text><text fill="#000000" font-family="sans-serif" font-size="14" lengthAdjust="spacing" textLength="95.5254" x="714.62" y="142.0389">+exportPDF()</text><text fill="#000000" font-family="sans-serif" font-size="14" lengthAdjust="spacing" textLength="105.5811" x="714.62" y="158.3357">+exportExcel()</text></g><!--link Emetteur to Alert--><g class="link" data-entity-1="Emetteur" data-entity-2="Alert" data-source-line="44" data-uid="lnk7" id="link_Emetteur_Alert"><path codeLine="44" d="M89.42,190.4069 C89.42,243.9469 89.42,307.2669 89.42,307.2669 C89.42,307.2669 225.89,307.2669 322.17,307.2669" fill="none" id="Emetteur-to-Alert" style="stroke:#181818;stroke-width:1;"/><polygon fill="#181818" points="328.17,307.2669,319.17,303.2669,323.17,307.2669,319.17,311.2669,328.17,307.2669" style="stroke:#181818;stroke-width:1;"/></g><!--link R?cepteur to Alert--><g class="link" data-entity-1="R.cepteur" data-entity-2="Alert" data-source-line="45" data-uid="lnk8" id="link_R.cepteur_Alert"><path codeLine="45" d="M350.22,190.4469 C350.22,210.1269 350.22,225.1169 350.22,243.7669" fill="none" id="R&#233;cepteur-to-Alert" style="stroke:#181818;stroke-width:1;"/><polygon fill="#181818" points="350.22,249.7669,354.22,240.7669,350.22,244.7669,346.22,240.7669,350.22,249.7669" style="stroke:#181818;stroke-width:1;"/></g><!--link Basculeur to Alert--><g class="link" data-entity-1="Basculeur" data-entity-2="Alert" data-source-line="46" data-uid="lnk9" id="link_Basculeur_Alert"><path codeLine="46" d="M437.93,157.8369 C437.93,184.6969 437.93,214.2769 437.93,243.9169" fill="none" id="Basculeur-to-Alert" style="stroke:#181818;stroke-width:1;"/><polygon fill="#181818" points="437.93,249.9169,441.93,240.9169,437.93,244.9169,433.93,240.9169,437.93,249.9169" style="stroke:#181818;stroke-width:1;"/></g><!--link Historique to Alert--><g class="link" data-entity-1="Historique" data-entity-2="Alert" data-source-line="47" data-uid="lnk10" id="link_Historique_Alert"><path codeLine="47" d="M708.47,162.2669 C621.53,162.2669 469.08,162.2669 469.08,162.2669 C469.08,162.2669 469.08,203.2369 469.08,243.5969" fill="none" id="Historique-to-Alert" style="stroke:#181818;stroke-width:1;"/><polygon fill="#181818" points="469.08,249.5969,473.08,240.5969,469.08,244.5969,465.08,240.5969,469.08,249.5969" style="stroke:#181818;stroke-width:1;"/></g><!--SRC=[hPBFJW8n4CRl-nHp4sD8F1D20Wh1Wv6mYLTJkWDCxBRhp2p_r0VoENmnosvSUl3ehVFhrs- -Tgga3k6Up8PDMI8K2DOP4HJeGrvNo3iI2XwUvxCiarVobOdALZHMPLhLYWys-9nE2BU99D-Q8kp9Rs1jd62ouyYZ7Yk4mBeDMTQOmRH4LQmPtZE0cpNZMutU7X_dfm6iNJ1wnbNO8o-i3e1y0nJB6D9epNYNwBGeashvb7S7q9kLms80gn1SzldRVVdzPR7wj_uiGY_590tX0mb6bY29BPpTjcPTb8aHMxikYR5AErmOZJfHXk5mmUGjLSPzv6X3pJ8QDS9Qm_JlsuqTihPsL5ooKucYfgm6K1Z5SzdWE9gcLHCHTyYannPqXdCI3KmnV-iQ5tpihSafibmtxtoeudWNzxDUKauF5bq4qUSAbkYCnhybMJVwVd_KPisIULpWvMKkB4dImHy0]--></g></svg>