<svg xmlns="http://www.w3.org/2000/svg" xmlns:xlink="http://www.w3.org/1999/xlink" contentStyleType="text/css" data-diagram-type="DESCRIPTION" height="495px" preserveAspectRatio="none" style="width:2411px;height:495px;background:#FFFFFF;" version="1.1" viewBox="0 0 2411 495" width="2411px" zoomAndPan="magnify"><defs/><g><!--cluster UI--><g class="cluster" data-entity="UI" data-source-line="1" data-uid="ent0002" id="cluster_UI"><path d="M8.5,6 L26.0771,6 A3.75,3.75 0 0 1 28.5771,8.5 L35.5771,28.2969 L1211.5,28.2969 A2.5,2.5 0 0 1 1214,30.7969 L1214,249.61 A2.5,2.5 0 0 1 1211.5,252.11 L8.5,252.11 A2.5,2.5 0 0 1 6,249.61 L6,8.5 A2.5,2.5 0 0 1 8.5,6" fill="none" style="stroke:#000000;stroke-width:1.5;"/><line style="stroke:#000000;stroke-width:1.5;" x1="6" x2="35.5771" y1="28.2969" y2="28.2969"/><text fill="#000000" font-family="sans-serif" font-size="14" font-weight="bold" lengthAdjust="spacing" textLength="16.5771" x="10" y="20.9951">UI</text></g><!--cluster Services--><g class="cluster" data-entity="Services" data-source-line="10" data-uid="ent0021" id="cluster_Services"><path d="M1256.5,146.56 L1324.0342,146.56 A3.75,3.75 0 0 1 1326.5342,149.06 L1333.5342,168.8569 L1810.5,168.8569 A2.5,2.5 0 0 1 1813,171.3569 L1813,486.06 A2.5,2.5 0 0 1 1810.5,488.56 L1256.5,488.56 A2.5,2.5 0 0 1 1254,486.06 L1254,149.06 A2.5,2.5 0 0 1 1256.5,146.56" fill="none" style="stroke:#000000;stroke-width:1.5;"/><line style="stroke:#000000;stroke-width:1.5;" x1="1254" x2="1333.5342" y1="168.8569" y2="168.8569"/><text fill="#000000" font-family="sans-serif" font-size="14" font-weight="bold" lengthAdjust="spacing" textLength="66.5342" x="1258" y="161.5551">Services</text></g><!--cluster Infrastructure--><g class="cluster" data-entity="Infrastructure" data-source-line="21" data-uid="ent0030" id="cluster_Infrastructure"><path d="M1855.5,292.11 L1967.3721,292.11 A3.75,3.75 0 0 1 1969.8721,294.61 L1976.8721,314.4069 L2401.5,314.4069 A2.5,2.5 0 0 1 2404,316.9069 L2404,485.98 A2.5,2.5 0 0 1 2401.5,488.48 L1855.5,488.48 A2.5,2.5 0 0 1 1853,485.98 L1853,294.61 A2.5,2.5 0 0 1 1855.5,292.11" fill="none" style="stroke:#000000;stroke-width:1.5;"/><line style="stroke:#000000;stroke-width:1.5;" x1="1853" x2="1976.8721" y1="314.4069" y2="314.4069"/><text fill="#000000" font-family="sans-serif" font-size="14" font-weight="bold" lengthAdjust="spacing" textLength="110.8721" x="1857" y="307.1051">Infrastructure</text></g><!--entity AuthView--><g class="entity" data-entity="AuthView" data-source-line="2" data-uid="ent0003" id="entity_AuthView"><rect fill="#F1F1F1" height="46.2969" rx="2.5" ry="2.5" style="stroke:#181818;stroke-width:0.5;" width="106.3428" x="44.83" y="49"/><rect fill="#F1F1F1" height="10" style="stroke:#181818;stroke-width:0.5;" width="15" x="131.1728" y="54"/><rect fill="#F1F1F1" height="2" style="stroke:#181818;stroke-width:0.5;" width="4" x="129.1728" y="56"/><rect fill="#F1F1F1" height="2" style="stroke:#181818;stroke-width:0.5;" width="4" x="129.1728" y="60"/><text fill="#000000" font-family="sans-serif" font-size="14" lengthAdjust="spacing" textLength="66.3428" x="59.83" y="81.9951">AuthView</text></g><!--entity AuthController--><g class="entity" data-entity="AuthController" data-source-line="2" data-uid="ent0004" id="entity_AuthController"><ellipse cx="98" cy="208.444" fill="#F1F1F1" rx="68.27" ry="16.054" style="stroke:#181818;stroke-width:0.5;"/><text fill="#000000" font-family="sans-serif" font-size="14" lengthAdjust="spacing" textLength="101.9854" x="47.0074" y="213.0924">AuthController</text></g><!--entity DashboardView--><g class="entity" data-entity="DashboardView" data-source-line="3" data-uid="ent0006" id="entity_DashboardView"><rect fill="#F1F1F1" height="46.2969" rx="2.5" ry="2.5" style="stroke:#181818;stroke-width:0.5;" width="149.7305" x="213.13" y="49"/><rect fill="#F1F1F1" height="10" style="stroke:#181818;stroke-width:0.5;" width="15" x="342.8605" y="54"/><rect fill="#F1F1F1" height="2" style="stroke:#181818;stroke-width:0.5;" width="4" x="340.8605" y="56"/><rect fill="#F1F1F1" height="2" style="stroke:#181818;stroke-width:0.5;" width="4" x="340.8605" y="60"/><text fill="#000000" font-family="sans-serif" font-size="14" lengthAdjust="spacing" textLength="109.7305" x="228.13" y="81.9951">DashboardView</text></g><!--entity DashboardController--><g class="entity" data-entity="DashboardController" data-source-line="3" data-uid="ent0007" id="entity_DashboardController"><ellipse cx="287.9962" cy="208.4352" fill="#F1F1F1" rx="86.3262" ry="19.6652" style="stroke:#181818;stroke-width:0.5;"/><text fill="#000000" font-family="sans-serif" font-size="14" lengthAdjust="spacing" textLength="145.373" x="215.3097" y="213.0837">DashboardController</text></g><!--entity EmetteurView--><g class="entity" data-entity="EmetteurView" data-source-line="4" data-uid="ent0009" id="entity_EmetteurView"><rect fill="#F1F1F1" height="46.2969" rx="2.5" ry="2.5" style="stroke:#181818;stroke-width:0.5;" width="138.8477" x="421.58" y="49"/><rect fill="#F1F1F1" height="10" style="stroke:#181818;stroke-width:0.5;" width="15" x="540.4277" y="54"/><rect fill="#F1F1F1" height="2" style="stroke:#181818;stroke-width:0.5;" width="4" x="538.4277" y="56"/><rect fill="#F1F1F1" height="2" style="stroke:#181818;stroke-width:0.5;" width="4" x="538.4277" y="60"/><text fill="#000000" font-family="sans-serif" font-size="14" lengthAdjust="spacing" textLength="98.8477" x="436.58" y="81.9951">EmetteurView</text></g><!--entity EmetteurController--><g class="entity" data-entity="EmetteurController" data-source-line="4" data-uid="ent0010" id="entity_EmetteurController"><ellipse cx="491.0046" cy="208.4449" fill="#F1F1F1" rx="81.6246" ry="18.7249" style="stroke:#181818;stroke-width:0.5;"/><text fill="#000000" font-family="sans-serif" font-size="14" lengthAdjust="spacing" textLength="134.4902" x="423.7595" y="213.0934">EmetteurController</text></g><!--entity RecepteurView--><g class="entity" data-entity="RecepteurView" data-source-line="5" data-uid="ent0012" id="entity_RecepteurView"><rect fill="#F1F1F1" height="46.2969" rx="2.5" ry="2.5" style="stroke:#181818;stroke-width:0.5;" width="145.7998" x="619.1" y="49"/><rect fill="#F1F1F1" height="10" style="stroke:#181818;stroke-width:0.5;" width="15" x="744.8998" y="54"/><rect fill="#F1F1F1" height="2" style="stroke:#181818;stroke-width:0.5;" width="4" x="742.8998" y="56"/><rect fill="#F1F1F1" height="2" style="stroke:#181818;stroke-width:0.5;" width="4" x="742.8998" y="60"/><text fill="#000000" font-family="sans-serif" font-size="14" lengthAdjust="spacing" textLength="105.7998" x="634.1" y="81.9951">RecepteurView</text></g><!--entity RecepteurController--><g class="entity" data-entity="RecepteurController" data-source-line="5" data-uid="ent0013" id="entity_RecepteurController"><ellipse cx="691.9975" cy="208.4435" fill="#F1F1F1" rx="84.6175" ry="19.3235" style="stroke:#181818;stroke-width:0.5;"/><text fill="#000000" font-family="sans-serif" font-size="14" lengthAdjust="spacing" textLength="141.4424" x="621.2763" y="213.0919">RecepteurController</text></g><!--entity BasculeurView--><g class="entity" data-entity="BasculeurView" data-source-line="6" data-uid="ent0015" id="entity_BasculeurView"><rect fill="#F1F1F1" height="46.2969" rx="2.5" ry="2.5" style="stroke:#181818;stroke-width:0.5;" width="142.71" x="823.65" y="49"/><rect fill="#F1F1F1" height="10" style="stroke:#181818;stroke-width:0.5;" width="15" x="946.36" y="54"/><rect fill="#F1F1F1" height="2" style="stroke:#181818;stroke-width:0.5;" width="4" x="944.36" y="56"/><rect fill="#F1F1F1" height="2" style="stroke:#181818;stroke-width:0.5;" width="4" x="944.36" y="60"/><text fill="#000000" font-family="sans-serif" font-size="14" lengthAdjust="spacing" textLength="102.71" x="838.65" y="81.9951">BasculeurView</text></g><!--entity BasculeurController--><g class="entity" data-entity="BasculeurController" data-source-line="6" data-uid="ent0016" id="entity_BasculeurController"><ellipse cx="895.0025" cy="208.4365" fill="#F1F1F1" rx="83.2825" ry="19.0565" style="stroke:#181818;stroke-width:0.5;"/><text fill="#000000" font-family="sans-serif" font-size="14" lengthAdjust="spacing" textLength="138.3525" x="825.8262" y="213.0849">BasculeurController</text></g><!--entity HistoriqueView--><g class="entity" data-entity="HistoriqueView" data-source-line="7" data-uid="ent0018" id="entity_HistoriqueView"><rect fill="#F1F1F1" height="46.2969" rx="2.5" ry="2.5" style="stroke:#181818;stroke-width:0.5;" width="145.3145" x="1025.34" y="49"/><rect fill="#F1F1F1" height="10" style="stroke:#181818;stroke-width:0.5;" width="15" x="1150.6545" y="54"/><rect fill="#F1F1F1" height="2" style="stroke:#181818;stroke-width:0.5;" width="4" x="1148.6545" y="56"/><rect fill="#F1F1F1" height="2" style="stroke:#181818;stroke-width:0.5;" width="4" x="1148.6545" y="60"/><text fill="#000000" font-family="sans-serif" font-size="14" lengthAdjust="spacing" textLength="105.3145" x="1040.34" y="81.9951">HistoriqueView</text></g><!--entity HistoriqueController--><g class="entity" data-entity="HistoriqueController" data-source-line="7" data-uid="ent0019" id="entity_HistoriqueController"><ellipse cx="1097.9973" cy="208.4415" fill="#F1F1F1" rx="84.4073" ry="19.2815" style="stroke:#181818;stroke-width:0.5;"/><text fill="#000000" font-family="sans-serif" font-size="14" lengthAdjust="spacing" textLength="140.957" x="1027.5188" y="213.0899">HistoriqueController</text></g><!--entity AuthService--><g class="entity" data-entity="AuthService" data-source-line="11" data-uid="ent0022" id="entity_AuthService"><ellipse cx="1340.0034" cy="208.4427" fill="#F1F1F1" rx="61.7134" ry="14.7427" style="stroke:#181818;stroke-width:0.5;"/><text fill="#000000" font-family="sans-serif" font-size="14" lengthAdjust="spacing" textLength="84.5537" x="1297.7265" y="213.0911">AuthService</text></g><!--entity EquipementService--><g class="entity" data-entity="EquipementService" data-source-line="12" data-uid="ent0023" id="entity_EquipementService"><ellipse cx="1519.0012" cy="208.4442" fill="#F1F1F1" rx="82.4212" ry="18.8842" style="stroke:#181818;stroke-width:0.5;"/><text fill="#000000" font-family="sans-serif" font-size="14" lengthAdjust="spacing" textLength="136.3496" x="1450.8264" y="213.0927">EquipementService</text></g><!--entity PollingService--><g class="entity" data-entity="PollingService" data-source-line="13" data-uid="ent0024" id="entity_PollingService"><ellipse cx="1703.0038" cy="208.4388" fill="#F1F1F1" rx="66.7938" ry="15.7588" style="stroke:#181818;stroke-width:0.5;"/><text fill="#000000" font-family="sans-serif" font-size="14" lengthAdjust="spacing" textLength="98.1777" x="1653.9149" y="213.0872">PollingService</text></g><!--entity AlertingService--><g class="entity" data-entity="AlertingService" data-source-line="14" data-uid="ent0025" id="entity_AlertingService"><ellipse cx="1348.0041" cy="353.2568" fill="#F1F1F1" rx="70.1341" ry="16.4268" style="stroke:#181818;stroke-width:0.5;"/><text fill="#000000" font-family="sans-serif" font-size="14" lengthAdjust="spacing" textLength="106.7158" x="1294.6462" y="357.9053">AlertingService</text></g><!--entity HistoriqueService--><g class="entity" data-entity="HistoriqueService" data-source-line="15" data-uid="ent0026" id="entity_HistoriqueService"><ellipse cx="1530.0002" cy="353.258" fill="#F1F1F1" rx="76.9902" ry="17.798" style="stroke:#181818;stroke-width:0.5;"/><text fill="#000000" font-family="sans-serif" font-size="14" lengthAdjust="spacing" textLength="123.5254" x="1468.2375" y="357.9065">HistoriqueService</text></g><!--entity ReportService--><g class="entity" data-entity="ReportService" data-source-line="16" data-uid="ent0027" id="entity_ReportService"><ellipse cx="1708.9955" cy="353.2551" fill="#F1F1F1" rx="67.0255" ry="15.8051" style="stroke:#181818;stroke-width:0.5;"/><text fill="#000000" font-family="sans-serif" font-size="14" lengthAdjust="spacing" textLength="98.7793" x="1659.6058" y="357.9035">ReportService</text></g><!--entity ConfigService--><g class="entity" data-entity="ConfigService" data-source-line="17" data-uid="ent0028" id="entity_ConfigService"><ellipse cx="1348.0017" cy="447.9823" fill="#F1F1F1" rx="66.2117" ry="15.6423" style="stroke:#181818;stroke-width:0.5;"/><text fill="#000000" font-family="sans-serif" font-size="14" lengthAdjust="spacing" textLength="96.6602" x="1299.6716" y="452.6308">ConfigService</text></g><!--entity NotificationHub--><g class="entity" data-entity="NotificationHub" data-source-line="18" data-uid="ent0029" id="entity_NotificationHub"><ellipse cx="1520.0018" cy="447.9784" fill="#F1F1F1" rx="70.8918" ry="16.5784" style="stroke:#181818;stroke-width:0.5;"/><text fill="#000000" font-family="sans-serif" font-size="14" lengthAdjust="spacing" textLength="108.6162" x="1465.6937" y="452.6268">NotificationHub</text></g><!--entity ModbusAdapter--><g class="entity" data-entity="ModbusAdapter" data-source-line="22" data-uid="ent0031" id="entity_ModbusAdapter"><ellipse cx="1948.9965" cy="353.2593" fill="#F1F1F1" rx="71.5965" ry="16.7193" style="stroke:#181818;stroke-width:0.5;"/><text fill="#000000" font-family="sans-serif" font-size="14" lengthAdjust="spacing" textLength="110.373" x="1893.81" y="357.9077">ModbusAdapter</text></g><!--entity UsersRepo--><g class="entity" data-entity="UsersRepo" data-source-line="23" data-uid="ent0032" id="entity_UsersRepo"><ellipse cx="2112.0009" cy="353.2636" fill="#F1F1F1" rx="56.0309" ry="14.5236" style="stroke:#181818;stroke-width:0.5;"/><text fill="#000000" font-family="sans-serif" font-size="14" lengthAdjust="spacing" textLength="74.9971" x="2074.5024" y="357.9121">UsersRepo</text></g><!--entity EquipementsRepo--><g class="entity" data-entity="EquipementsRepo" data-source-line="24" data-uid="ent0033" id="entity_EquipementsRepo"><ellipse cx="2281.9993" cy="353.2579" fill="#F1F1F1" rx="78.7393" ry="18.1479" style="stroke:#181818;stroke-width:0.5;"/><text fill="#000000" font-family="sans-serif" font-size="14" lengthAdjust="spacing" textLength="127.6953" x="2218.1517" y="357.9063">EquipementsRepo</text></g><!--entity AlertesRepo--><g class="entity" data-entity="AlertesRepo" data-source-line="25" data-uid="ent0034" id="entity_AlertesRepo"><ellipse cx="1949.0034" cy="447.9767" fill="#F1F1F1" rx="61.8834" ry="14.7767" style="stroke:#181818;stroke-width:0.5;"/><text fill="#000000" font-family="sans-serif" font-size="14" lengthAdjust="spacing" textLength="85.0254" x="1906.4907" y="452.6251">AlertesRepo</text></g><!--entity HistoriqueRepo--><g class="entity" data-entity="HistoriqueRepo" data-source-line="26" data-uid="ent0035" id="entity_HistoriqueRepo"><ellipse cx="2115.9969" cy="447.9754" fill="#F1F1F1" rx="70.4769" ry="16.4954" style="stroke:#181818;stroke-width:0.5;"/><text fill="#000000" font-family="sans-serif" font-size="14" lengthAdjust="spacing" textLength="107.5771" x="2062.2084" y="452.6238">HistoriqueRepo</text></g><!--entity DBConnection--><g class="entity" data-entity="DBConnection" data-source-line="27" data-uid="ent0036" id="entity_DBConnection"><ellipse cx="2289.0024" cy="447.9785" fill="#F1F1F1" rx="67.3424" ry="15.8685" style="stroke:#181818;stroke-width:0.5;"/><text fill="#000000" font-family="sans-serif" font-size="14" lengthAdjust="spacing" textLength="99.5996" x="2239.2026" y="452.6269">DBConnection</text></g><!--entity RS485--><g class="entity" data-entity="RS485" data-source-line="32" data-uid="ent0039" id="entity_RS485"><ellipse cx="1885.998" cy="42.5" fill="#F1F1F1" rx="8" ry="8" style="stroke:#181818;stroke-width:0.5;"/><path d="M1885.998,50.5 L1885.998,77.5 M1872.998,58.5 L1898.998,58.5 M1885.998,77.5 L1872.998,92.5 M1885.998,77.5 L1898.998,92.5" fill="none" style="stroke:#181818;stroke-width:0.5;"/><text fill="#000000" font-family="sans-serif" font-size="14" lengthAdjust="spacing" textLength="45.3359" x="1863.33" y="106.9951">RS485</text></g><!--entity ?quipements--><g class="entity" data-entity=".quipements" data-source-line="32" data-uid="ent0040" id="entity_.quipements"><ellipse cx="1886.0012" cy="178.79" fill="#F1F1F1" rx="8" ry="8" style="stroke:#181818;stroke-width:0.5;"/><path d="M1886.0012,186.79 L1886.0012,213.79 M1873.0012,194.79 L1899.0012,194.79 M1886.0012,213.79 L1873.0012,228.79 M1886.0012,213.79 L1899.0012,228.79" fill="none" style="stroke:#181818;stroke-width:0.5;"/><text fill="#000000" font-family="sans-serif" font-size="14" lengthAdjust="spacing" textLength="91.9023" x="1840.05" y="243.2851">&#201;quipements</text></g><!--entity MySQL--><g class="entity" data-entity="MySQL" data-source-line="33" data-uid="ent0042" id="entity_MySQL"><ellipse cx="2040.9952" cy="42.5" fill="#F1F1F1" rx="8" ry="8" style="stroke:#181818;stroke-width:0.5;"/><path d="M2040.9952,50.5 L2040.9952,77.5 M2027.9952,58.5 L2053.9952,58.5 M2040.9952,77.5 L2027.9952,92.5 M2040.9952,77.5 L2053.9952,92.5" fill="none" style="stroke:#181818;stroke-width:0.5;"/><text fill="#000000" font-family="sans-serif" font-size="14" lengthAdjust="spacing" textLength="48.0703" x="2016.96" y="106.9951">MySQL</text></g><!--entity Base supervision_vhf--><g class="entity" data-entity="Base supervision_vhf" data-source-line="33" data-uid="ent0043" id="entity_Base supervision_vhf"><ellipse cx="2041.0038" cy="178.79" fill="#F1F1F1" rx="8" ry="8" style="stroke:#181818;stroke-width:0.5;"/><path d="M2041.0038,186.79 L2041.0038,213.79 M2028.0038,194.79 L2054.0038,194.79 M2041.0038,213.79 L2028.0038,228.79 M2041.0038,213.79 L2054.0038,228.79" fill="none" style="stroke:#181818;stroke-width:0.5;"/><text fill="#000000" font-family="sans-serif" font-size="14" lengthAdjust="spacing" textLength="147.8477" x="1967.08" y="243.2851">Base supervision_vhf</text></g><!--link AuthView to AuthController--><g class="link" data-entity-1="AuthView" data-entity-2="AuthController" data-source-line="2" data-uid="lnk5" id="link_AuthView_AuthController"><path d="M98,95.62 C98,122.95 98,162.35 98,186.02" fill="none" id="AuthView-to-AuthController" style="stroke:#181818;stroke-width:1;"/><polygon fill="#181818" points="98,192.02,102,183.02,98,187.02,94,183.02,98,192.02" style="stroke:#181818;stroke-width:1;"/></g><!--link DashboardView to DashboardController--><g class="link" data-entity-1="DashboardView" data-entity-2="DashboardController" data-source-line="3" data-uid="lnk8" id="link_DashboardView_DashboardController"><path d="M288,95.62 C288,121.61 288,157.93 288,182.37" fill="none" id="DashboardView-to-DashboardController" style="stroke:#181818;stroke-width:1;"/><polygon fill="#181818" points="288,188.37,292,179.37,288,183.37,284,179.37,288,188.37" style="stroke:#181818;stroke-width:1;"/></g><!--link EmetteurView to EmetteurController--><g class="link" data-entity-1="EmetteurView" data-entity-2="EmetteurController" data-source-line="4" data-uid="lnk11" id="link_EmetteurView_EmetteurController"><path d="M491,95.62 C491,122.06 491,159.39 491,183.62" fill="none" id="EmetteurView-to-EmetteurController" style="stroke:#181818;stroke-width:1;"/><polygon fill="#181818" points="491,189.62,495,180.62,491,184.62,487,180.62,491,189.62" style="stroke:#181818;stroke-width:1;"/></g><!--link RecepteurView to RecepteurController--><g class="link" data-entity-1="RecepteurView" data-entity-2="RecepteurController" data-source-line="5" data-uid="lnk14" id="link_RecepteurView_RecepteurController"><path d="M692,95.62 C692,121.76 692,158.41 692,182.79" fill="none" id="RecepteurView-to-RecepteurController" style="stroke:#181818;stroke-width:1;"/><polygon fill="#181818" points="692,188.79,696,179.79,692,183.79,688,179.79,692,188.79" style="stroke:#181818;stroke-width:1;"/></g><!--link BasculeurView to BasculeurController--><g class="link" data-entity-1="BasculeurView" data-entity-2="BasculeurController" data-source-line="6" data-uid="lnk17" id="link_BasculeurView_BasculeurController"><path d="M895,95.62 C895,121.91 895,158.9 895,183.21" fill="none" id="BasculeurView-to-BasculeurController" style="stroke:#181818;stroke-width:1;"/><polygon fill="#181818" points="895,189.21,899,180.21,895,184.21,891,180.21,895,189.21" style="stroke:#181818;stroke-width:1;"/></g><!--link HistoriqueView to HistoriqueController--><g class="link" data-entity-1="HistoriqueView" data-entity-2="HistoriqueController" data-source-line="7" data-uid="lnk20" id="link_HistoriqueView_HistoriqueController"><path d="M1098,95.62 C1098,121.76 1098,158.41 1098,182.79" fill="none" id="HistoriqueView-to-HistoriqueController" style="stroke:#181818;stroke-width:1;"/><polygon fill="#181818" points="1098,188.79,1102,179.79,1098,183.79,1094,179.79,1098,188.79" style="stroke:#181818;stroke-width:1;"/></g><!--link UI to Services--><g class="link" data-entity-1="UI" data-entity-2="Services" data-source-line="30" data-uid="lnk37" id="link_UI_Services"><path d="M1214.3594,73.3638 C1214.6452,73.3715 1214.9379,73.3795 1215.2375,73.3876 C1215.8367,73.4039 1216.4635,73.421 1217.1173,73.439 C1218.425,73.475 1219.8409,73.5145 1221.3613,73.5575 C1224.4019,73.6435 1227.8603,73.7436 1231.7056,73.8585 C1247.0871,74.3179 1268.6607,75.0127 1294.4645,75.9792 C1346.0722,77.9122 1414.6006,80.9319 1484.3537,85.3288 C1623.86,94.1225 1768.265,108.425 1792,130.56 C1795.0688,133.4213 1797.5848,136.7169 1799.6371,140.2997 C1800.6633,142.0912 1801.5735,143.9544 1802.3788,145.871 C1802.4291,145.9908 1800.1937,162.86 1800.2432,162.9802" fill="none" id="UI-to-Services" style="stroke:#181818;stroke-width:1;stroke-dasharray:7,7;"/><polygon fill="#181818" points="1802.5286,168.5279,1802.799,158.6828,1800.6241,163.9048,1795.402,161.7299,1802.5286,168.5279" style="stroke:#181818;stroke-width:1;"/></g><!--link Services to Infrastructure--><g class="link" data-entity-1="Services" data-entity-2="Infrastructure" data-source-line="31" data-uid="lnk38" id="link_Services_Infrastructure"><path d="M1813.0234,256.2247 C1813.0726,256.3149 1813.1222,256.4049 1813.172,256.4948 C1813.2717,256.6744 1813.3725,256.8534 1813.4744,257.0315 C1814.2902,258.4567 1815.1803,259.8323 1816.1513,261.1432 C1818.0933,263.7648 1820.3587,266.1275 1823,268.11 C1847.62,286.58 2352.88,256.98 2377,276.11 C2380.31,278.7338 2383.097,281.8386 2385.4392,285.2696 C2386.6103,286.985 2387.6702,288.782 2388.6286,290.6412 C2388.8682,291.106 2386.5014,308.4642 2386.7285,308.9364" fill="none" id="Services-to-Infrastructure" style="stroke:#181818;stroke-width:1;stroke-dasharray:7,7;"/><polygon fill="#181818" points="2389.3285,314.3438,2389.0334,304.4994,2387.1618,309.8376,2381.8235,307.9661,2389.3285,314.3438" style="stroke:#181818;stroke-width:1;"/></g><!--link RS485 to ?quipements--><g class="link" data-entity-1="RS485" data-entity-2=".quipements" data-source-line="32" data-uid="lnk41" id="link_RS485_.quipements"><path d="M1886,110.55 C1886,129.18 1886,145.63 1886,164.23" fill="none" id="RS485-to-&#201;quipements" style="stroke:#181818;stroke-width:1;stroke-dasharray:7,7;"/><polygon fill="#181818" points="1886,170.23,1890,161.23,1886,165.23,1882,161.23,1886,170.23" style="stroke:#181818;stroke-width:1;"/></g><!--link MySQL to Base supervision_vhf--><g class="link" data-entity-1="MySQL" data-entity-2="Base supervision_vhf" data-source-line="33" data-uid="lnk44" id="link_MySQL_Base supervision_vhf"><path d="M2041,110.55 C2041,129.18 2041,145.63 2041,164.23" fill="none" id="MySQL-to-Base supervision_vhf" style="stroke:#181818;stroke-width:1;stroke-dasharray:7,7;"/><polygon fill="#181818" points="2041,170.23,2045,161.23,2041,165.23,2037,161.23,2041,170.23" style="stroke:#181818;stroke-width:1;"/></g><!--SRC=[NP9BJiCm54NdMOMLKHYq8v0OLKfffLQY21AL2KB8TLuQYzHE_Ib2Y0MmBZQ6xHRRyT379-_Tt6J0v1tl0MtNw2j3wANKgdkcyF6A9fCPAkpnZZCbUD-3kBB60ijknx5e8ispn5qUG2dG8bB_KM9MG618LCyITuubqVtOzInnLrGgBkXHGoG76DlVMJPSsgX1d2W1wJfn9Lo8dLaiZveES02cOlfenb2sZr5fvgg4XTqnhM3WOZJE96lfwCa7hcXB2LQKivNUZGAlMIkmL48JfGMSOszuizEoRB3fq9LHR2K8QLSbhn6OImpX7D9wj9YRQ0o8ZU4oc5zdEftvpZ9VdgNZO5bLNz_Uk8lyzoVipxFDP_rqVxumdnAGr8CT8ysIjrFNvdy0]--></g></svg>